/* XPM */
static char *bb6d59dcc6b64569e14b58043b9fcec2sfx41ohU9bXU1QZ7[] = {
/* columns rows colors chars-per-pixel */
"64 64 256 2 ",
"   c #1C1C1D",
".  c #161B16",
"X  c #191B0E",
"o  c #350101",
"O  c #3C0201",
"+  c #3B0A02",
"@  c #360508",
"#  c #251C1C",
"$  c #281A19",
"%  c #2D150D",
"&  c #16241E",
"*  c #1D211C",
"=  c #1C2B1D",
"-  c #1A2416",
";  c #092B1A",
":  c #24231C",
">  c #272A1D",
",  c #38271B",
"<  c #2C3319",
"1  c #3D371D",
"2  c #1C1C22",
"3  c #251C22",
"4  c #2A1A24",
"5  c #341D31",
"6  c #1E2222",
"7  c #1C2B24",
"8  c #1B2D2D",
"9  c #19262A",
"0  c #1B3427",
"q  c #182D2F",
"w  c #232524",
"e  c #2B2524",
"r  c #242C23",
"t  c #2B2B24",
"y  c #25242A",
"u  c #2A242A",
"i  c #242B2B",
"p  c #2B2C2C",
"a  c #342525",
"s  c #332B25",
"d  c #31242B",
"f  c #342C2C",
"g  c #3A2729",
"h  c #223323",
"j  c #24332C",
"k  c #2C332B",
"l  c #2B3529",
"z  c #33322D",
"x  c #3B342D",
"c  c #363928",
"v  c #222C33",
"b  c #2B2C32",
"n  c #2B2939",
"m  c #332C34",
"M  c #3B2A33",
"N  c #3C2D3B",
"B  c #362A36",
"V  c #233232",
"C  c #2B3333",
"Z  c #2C3B34",
"A  c #2D3C3B",
"S  c #273938",
"D  c #343434",
"F  c #3C3533",
"G  c #343B34",
"H  c #3D3A34",
"J  c #35353B",
"K  c #3B343B",
"L  c #333A3B",
"P  c #3B3B3B",
"I  c #440201",
"U  c #4C0201",
"Y  c #430A01",
"T  c #4C0A01",
"R  c #44010B",
"E  c #4B060A",
"W  c #540201",
"Q  c #5C0101",
"!  c #550A01",
"~  c #5D0A01",
"^  c #5C010A",
"/  c #56080B",
"(  c #4B1203",
")  c #500413",
"_  c #630201",
"`  c #6B0201",
"'  c #630A01",
"]  c #6C0A02",
"[  c #64020A",
"{  c #6D020A",
"}  c #670909",
"|  c #730201",
" . c #7B0101",
".. c #730A01",
"X. c #7B0A01",
"o. c #71020A",
"O. c #7C000B",
"+. c #7A090D",
"@. c #660412",
"#. c #75080C",
"$. c #49322D",
"%. c #422D36",
"&. c #413234",
"*. c #43343C",
"=. c #433B3C",
"-. c #4A353A",
";. c #503235",
":. c #33412E",
">. c #3B423D",
",. c #374539",
"<. c #2F4638",
"1. c #44443D",
"2. c #4A443B",
"3. c #444B3C",
"4. c #494937",
"5. c #52433D",
"6. c #544939",
"7. c #48533A",
"8. c #4D4E34",
"9. c #353B44",
"0. c #3B3B42",
"q. c #373945",
"w. c #2C3343",
"e. c #413B42",
"r. c #4B3D45",
"t. c #4A3B4C",
"y. c #523E44",
"u. c #503D4B",
"i. c #543F53",
"p. c #403D50",
"a. c #3D4342",
"s. c #3D4B44",
"d. c #3B434A",
"f. c #3D4B49",
"g. c #324849",
"h. c #395246",
"j. c #394755",
"k. c #3A5453",
"l. c #2F5558",
"z. c #444443",
"x. c #4C4444",
"c. c #444B45",
"v. c #4B4A45",
"b. c #44454B",
"n. c #4A444A",
"m. c #444B4A",
"M. c #4B4B4B",
"N. c #514445",
"B. c #5A4345",
"V. c #534B44",
"C. c #54454B",
"Z. c #544B4C",
"A. c #5B4848",
"S. c #445249",
"D. c #4C534D",
"F. c #47564B",
"G. c #53534D",
"H. c #5A534C",
"J. c #56594A",
"K. c #4C4451",
"L. c #444C53",
"P. c #4B4B53",
"I. c #474657",
"U. c #524E54",
"Y. c #574855",
"T. c #4D5454",
"R. c #4D5B59",
"E. c #485757",
"W. c #535353",
"Q. c #5B5353",
"!. c #535C52",
"~. c #54535A",
"^. c #545A5A",
"/. c #5B585A",
"(. c #634C54",
"). c #655756",
"_. c #745B5E",
"`. c #5C655E",
"'. c #55635B",
"]. c #63645D",
"[. c #66644B",
"{. c #494B61",
"}. c #475465",
"|. c #585764",
" X c #574762",
".X c #695C65",
"XX c #715C67",
"oX c #635F70",
"OX c #5B6768",
"+X c #4D626D",
"@X c #646462",
"#X c #6C6363",
"$X c #616A63",
"%X c #62646A",
"&X c #6B6669",
"*X c #716364",
"=X c #646270",
"-X c #840201",
";X c #8B0101",
":X c #840902",
">X c #8C0902",
",X c #85020A",
"<X c #8C020B",
"1X c #82090B",
"2X c #8F0A0F",
"3X c #930102",
"4X c #9B0102",
"5X c #940C03",
"6X c #9C0803",
"7X c #94020A",
"8X c #9C020A",
"9X c #93090A",
"0X c #9B090D",
"qX c #881105",
"wX c #890414",
"eX c #9F0011",
"rX c #9A0718",
"tX c #A30102",
"yX c #AB0102",
"uX c #A30A04",
"iX c #AC0901",
"pX c #A3020A",
"aX c #AB010B",
"sX c #A5090D",
"dX c #B40102",
"fX c #BC0102",
"gX c #B4000A",
"hX c #BC010B",
"jX c #BA0A0B",
"kX c #B70A05",
"lX c #A40012",
"zX c #AA0211",
"xX c #A60517",
"cX c #B20014",
"vX c #BA0911",
"bX c #C30102",
"nX c #CC0202",
"mX c #C40800",
"MX c #C2020A",
"NX c #CD020B",
"BX c #C50A0A",
"VX c #CB0C03",
"CX c #D40101",
"ZX c #DB0102",
"AX c #D3020B",
"SX c #DB010A",
"DX c #DF0909",
"FX c #C80412",
"GX c #D90211",
"HX c #E20203",
"JX c #EC0201",
"KX c #E3000B",
"LX c #EA0408",
"PX c #F20003",
"IX c #F5000A",
"UX c #EB0716",
/* pixels */
"@X`.%XOX&X'.*X`..X%X#X].oX$X%XOX@X&X#XOX&X_.].@X`.#XOX].*X$X&X@XOX#X@X%XXX].+X&X@X&X@XOX#X_.XXOX#X@XOX].OX`.].#X@X@XXX*XOX].OX%X",
"D e.D *.<.-.<.*.H C A D =.1 &.$.D *.S S A L P L P L P C K A K 9.x ;.P S ,.< -.,.L K S S K A <.K J K 0.J r.P L D F G 9.F Z c $.c ",
";.E.m.N.x.,.s.Q.h.r.M.r.}.b.E.s.P s.C.A.Z.h.z.a.Q.G.Q.!.W.T.x.c.c.s.P.u.I.B.j.H.Q.F.).(.W.!.v.z.x.V.D G m c.c./.W.m.n.z.P.N.f.N ",
"PXHXnXnXDXCXnXCXNXVXPXyX,.M.Q.LXJXZXnXnXCXnXVXLXCXZXCXZXCXCXHXnXAXZXCX8Xx.G T.LXPXPXIXZXCXKXHXHXZXnXCXHXZXnXnXnXMXMXfXmXgX4XZ i ",
"ZXCXMXfXZX-XyXnX4XfX4X' b n.~.HXfX>XyX6XgXyXyX .yXyXdX3XdX .MX .bXnX4X .u P.=.CXyXfXyXnXfXaXfX-XNX-XfXdXNX-XdX4X;XbX3XnXtX-Xj n ",
"AX4X` 4X-XtX4X .yX>X` _ h z.W.ZXhX-X;XtX;X] tX8X .3X;XpX .7X8X| yXqX` Q z 1.G.CX6XyX| ..4X;XX.-XyX .>XgX4X-X3X3X3XtX! 4X` ` > a ",
"CXqXyXaX] 4XtX4X] yXQ @ s z.~.nX>XyXfX>X3X| yX-X5X..hX` >X .pX| 3Xo.{ W > S.f.ZX` yX! 4XyX~ tX_ 3X-XtX` yX` 4X;X-X0X| aX` I t z ",
"bXyX:X .-X-XyX| -X4X-Xo t Y.|.dXMXX.yX-X;X3XgX` ;X_ gX-X] 4X-X . .tX .I f 9.K.fX| yXo.tX:XQ dX`  .tX4X..tX4X4XtX| tXQ yX7X+ m n ",
"yX>X4X3X| pX7X| 3X` Q U i L.1.vXbX;XpX` yX` 6X .yX! tX-X .X.4X .8X-X| Q b q.4.fX7XtX! 3X4X .3X` >X .yX;XyX_ 6XO.,XyX .pX| I 8 b ",
"MX4X;X;X_ '  .Q .. .| I x J J.3X3X .] W ;X`  . . .U | -X_ 3X' I -X' | + p A 6.fX` ,XU o.O.W O.W | U -XW ` U ;X' W ..;X` -XI F e ",
",XW Q [ U O I O I O o E = S B.-XO.I Q ) Q W ^ ^ W @.U I O R I o I R R O f *.V.O.' Q | Q Q ] Q ' Q / _ / I ^ Q W U _ Q O Y O f d ",
"2.Z t a p y m k f $ *   g 9.W.c.a j , m h i . 9 . 6 p f 2 # : 4 t b v 7 &.g.U.H C b N 8 b v m b g n y 2 : . y n i f t V j d V b ",
"F F G P f.f.N.z.L D G *.-.f.K I.L.I.3.x.V.-.J P P D.s.D.S.=.k m.5.z.k.v.x.D.x.>.Z.G.H.G.`.(.].].G.!.f.B.1.-.g.k.H D.c.A.x.D.>.k ",
"nXNXSXfXdXnXMXbXhXBXbXyXfXfXtX8.J.3.IXKXCXZXZXCXCXCXbXCXnXfXbXCXVXgXbXnXdXMXdXnXkXfXdXkXfXnXfXfXfXbXjX7XB.,.8.UXPXSXBXCXNXBXCXfX",
";X-XgX3X;XyX| 4X-XaX' gXX.yX+ D Y.k.LX..yXbX .dX! tXhX;X5XAX<XyX;X .3XyX:X7X-X4X-XMX` NX3X8XgXhX9XbXyX+ 9.e.;.JXbX;XyX>XaX3XbX4X",
"yX-XyX-X .9X_ 4X<X` -XyXaX` O n c.c.ZXyX..tXO.yXpX;X8X' 4X` ! 3XtX..tX-XyX} yXtX-X' gX .4X` ;XyX{ yX| O 0.D.H.MXyX .tX;XX.3X3X` ",
"tXyX-X3X' 7X .;X>X4X| 4X-X| I y H y.VX' yX-XtX-X-X' 3X-X` yX<X' fX .-X' | ;X;XyXW ;X-X7X| tX..tXpX..` R h b.y.nX .dXtX6X .yXO.! ",
";X .pX4X ...7X,XyX3X! 4X' | R C D U.ZXo.yX7X;X9X` ,X4X| ` 4X` ;X4X .-X` zX` 0X-XQ 8X` 4X..;X_ tXO.3X .R t w.Y.fXaX` sX .yX3X . .",
"4X' 8X .3X| 4XW tX] | gXtX` U 0 c.D.nXgX! tX;XyX-X] -X! -X] ! 8XX. .Q O.eXW ;XQ ,XgX' -X4X .-XyX` yX` O X *.3.yXX.gXaXU tX-X7XW ",
"hX_ ~ U `  .8X` <X| Q tX] | U t c.J.fX8X..3XW _ <X .-X_  .;X_  .7X` 4X` 4X| >X-XQ 7Xo. .-XU  .7X_ 7X` I < 9.!.MX4X .` T  .<X_ Q ",
"E U I W U W I I U I U U O + @ x M.v.pX_ _ W [ @.` _ ` Q / o.Q _ ` Q U Q I Q U _ U _ ! W ^ Q _ ! W W E O X b.z 7X` I _ I + _ o U ",
"r g # p t k . $ $ a D 8 & w u 0.u.r.c.<.x a Z a n t M l D 9.P G d V u 9 y y 8   j i a # & y # w a a j t z.U.~.6.9 N v u f t D   ",
"G.V.F >.z.D.c.G.,.x.z.P &.&.L m.f.U.M.=.M.z.K r.q.H G =.N.l.v.U.G A.f.B.z k G =.*.c.G.D.z.A K ,.S.b.M.D.e.E.=.S.z.H c.H.h.z.r.p.",
"LXZXCXZXnXZXCXCXCXfXdXyXbXMXdXbXfXfXfXfXMXfXdXfXfXbXlX4.Q.H.LXJXCXnXCXCXZXnXDXZXSXSXyXnXfXdXdXnXbXgXfXbXnXyXdXnXfXbXdXbXfXpX7.z ",
"PXX.fXbX` bXo.bX` gX;XgX3XfXfX;XgX;XiX3XyXdX_ fXnX..O D i./.JXfX] nXyXyX-XyXtX-XdX7XiX ._ yX,X . .yXo.;XaX;XX.tX-X;X4XQ xX+ i N ",
"JXyX>XtX;XyX ...-XyXyX' 3X:XaX-XQ fX_ aXtXQ :X4X .yXO C v.!.AXbX4XtX' aX_ >X` tX-X_ aX` | iX_ 3X` gX-XyX-XdX_ dX3XX.4X-X| U r i ",
"fX' 8XhX` >XE yX' yX-XyX3X4XyX_ ,X4X' -XaX-X_  .pXo.I k T.].CXgX-XyX .tX' 4X` aXyX] dX..zX .' tX' | pX>X| 3X-XtX4X .yX! ` I M u ",
"nXtX-XtXW 4XU | ,X4X;X| | 3X-X .` ..yX` pX-X' aX .W O k ~.].CX..tX .4X-X` X.pX_ yXQ -XQ ,XtX .tX .<X,X4X+.tX~ yX-X7X3X..O.O 8 V ",
"dX:X| tXU 7XO.zX_ lXQ cXQ 8X;X{ ;XtX+._ yX_  .-X` aXO y v.H.SXbX' zX` 4X<X8XO.| aX_ aX` }  .( 4X! 4XU yXU yXaX| _ W |  .O.I d K ",
"jX4X! Q | | Q ` W ` ..o.] 3X` | ,X| | _  .8X] 4X' -XI d J W.kXfX` 3X| >X! _ ;X' ` _  .] | U gX( ` tXT  .7XW 4X' pXW 4X .| o z , ",
"yX4Xo.Q ` Q _ ~ _ ` ` _ _ Q | ^ U ^ O ) O U R U W O @ z 9.T.tX^ _ | ! ` { ` ` Q W ` } _ | _ W U _ T U W ^ U [ W W O Q { U U j t ",
"c.P n a b V m g v i f p b a t v b > v K H K M r b k s j y.K.4.f i a b 7 b z 8 y 6 e 2 # C K P K i 4 & # D h v f p v s t D s n b ",
"^.W.(.F.c.x.Z v.p.m &.2.|.[.OXW.E.|.1.z.m.>.9.=.P >.9.*.e./.g.C.v.D.9.H.c.V.v.b.G m., 3.K.R.~.x.c.e.x g.c.C.M.~.H D.z.M.N.W.P k ",
"dXfXkXnXbXbXdXMXyXuXM.<.{.nXSXZXnXCXZXCXKXfXdXfXfXdXfXfXyXbXBXfXdXFXgXdXFXbX8X4.^.Z.BXIXnXnXZXCXCXZXVXCXCXdXdXbXdXfXfXdXfXdXdXyX",
"yXyXdX3XfXiXiXbXtXO J a.&.CXaX` yX] yXyXQ yX7X4XgX` lX;X| yX7X' yXyX' yX .tXo =.I.}.AXyX .dX_ yXtX| 4X;X3X .sX` tX4XtX .yX` yX3X",
" .;XtX-XdX-XyX . .I J 3./.CXQ 8X .;XyX| pX3X .tX-X;X_ >X-X4X;XQ yX] ..tX' aXO J 8.J.nXtXW yX` 3X,X] aX .4X . .7X4X .3XX.-X;X.. .",
":XyX>X .tX .4XtX' U p c.D CX| 4XtX,X3XgX .>X .3XX.4X_ 4XU >X7XpX;X .4XyX .yXI L ).oXCXaXO.tXo.yX;X8X..zX4X;XtX| ;X .tX4X;X3X`  .",
"-X .pX3XaX;X;X;XO.o t.1.J.ZX7X` 6X| yX| ' ;X4X>X3X] <XdX` tX-XQ ,X7X .-XpXX.o *.E.%XnX .tXtX| 4X_ 4XyX .-XtX..8X;X3XtX;X-X..-X-X",
";X;X3X-XyX .;X4X| + A c.L.nX] 3X,XW >XzX| 7X<X4X<XpX| ..U ' 2X` 5X8X' yX-X8XI G z.(.MX6X-XtXeX| 4X<X;X-X4X-XaX-XyX;X4X-X-X4X| ;X",
"|  .7X| | 3X`  .o.I x v.K.<X| yX4XQ dX| ' tX| tX_ tX! -X' dX-X_ 4X .7X4X` | U p c.).gXtXQ aX| yXaX;XtX3X6X .;X| 4X' ;X..gXzX` ! ",
"o W I Q W U ! I O U b 6.2.zXo.Q Q | ' ! _ ` Q W ^ _ U ^ W Q _ Q Q Q U Q _ @ O i z.A.lX_ ] ` ~ Q ' Q ` Q _ Q _ ' ' _ ` ^ W Q O I ",
"i b S 8 i p b u r j q 1.^.7.$ : 9 4   f i *.e.&.p ; :   2 : j v i b m e v C 7 P P.b.,.C : d e c.q.u.N K B 3 y 4 e 7 J q e r D : ",
"V.H.G x.G F M.v.-.P w.P b.,.G =.L M.r.M.M.=./.R.n.B.x <.=.H.=.U.K.T.P 6.d.v.f A.m.).V.W.G |.c.C.^.&XR.x.f.m.G W.Z.J.q.|.H G.q.D ",
"PXnXZXAXCXnXCXAXfXdXbXnXgXbXfXfXdXfXjXgXbXbXyXyXgXfXfXfXfXNX7Xc ~.z UXJXCXZXZXnXnXZXCXBXdXyXbXfXdXkXbXbXdXdXfXbXhXfXbXfXdXcX4.* ",
"CX4X3X>XyX] dX3X-X3X4X-XyX] 3XyX` 4X| pX-XdX' yXQ pXtX-X..3XO &.S.Q.HXtXuXQ aXU 9XQ pX .aXQ yX3X| ;X<X_ pX . .3X .yX] 3XyXU 8 q.",
"nXdX_ 8X-X_ aX-X8X .6X! -X! 8X;X` yX_ wX;X3X' yX-X3X .6X_ 8XI i =.b.ZX1XyX` 3X] -XQ -XQ 3X` aXT 4X' aX .;X-XtX3X] ;XpXQ ;XI l t ",
"MX;X] lX{ ,X` | tX_ yX;X>X,XpX_ rX| wXW 3X8XU 3X_ ;X' ;X,X .O y :.U.CX;XaXW |  .tX .' tX-XQ tX8X_ 3X..| aX' 4X-XgX| ,X_ zXO r g ",
"ZXtX-X7X;X_ tX-X .7X6X .yXQ -XyX_ yX!  .tXQ 7XtX| 4XyXsX|  .Y z L K.ZX5X_ pX,X` 4XQ 8X_ 4XX.| ^ ;X` 4X .-X3X3X3X..| yX3X4Xo f 9 ",
"nX4X` <XpXQ 8X` tX' yXQ yX] gX_ W dXQ ,X .iX-X,X_ 8X` ;X` aXO & H Q.nXyX` Q uXQ  .Q ;X_ tXW 4X! yX_ -X| yX`  .6X..4X-X] ` I p J ",
"nXjXQ aX .1X` ;X6X-X4X;X;X .3X9X@.>X .Q W 4XI 4X` 4X .6X-X7XU : Z Q.vX_ aXo.;X_ 4X_ >X8X;X/ ;XO.-X] yX` sXQ aX-XtX` yXQ pXI s 6 ",
"tX_ Q _ Q _ Q | _ W W I _ W W U U I R E _ U U W I W R U U I @ e r.Q.8Xo.W @._ [ / ` _ [ W E ! ! W I W W W W W U U I W U O R z A ",
"v.p b D V d b i u f m A P L p # * % : m V d 3 3 6 $ 0 s w 6 4 C L.J 5.j t B j r u w w . f f c $.V # t v 0 p   7 r a b l v r b   ",
"9.W.M W.k.(.P.f.M.m.W.OXOXR.P.W.P /.q.{.3.,.e.A H z.s./.2.m.=.z.z.).G ^.1.K.x.v.C.s.n.1.~.W.+XY. XV.>.P.v.x p 6 w m z P.5.^.V.;.",
"ZXCXCXZXbXfXbXbXfXbXdXbXhXfXfXbXaX3.|.Z.JXJXnXGXCXNXSXAXCXAXbXfXiXfXfXdXbXgXdXbXbXdXmXgXfXzX4.h 7.PXnXFXKXHXAXfXdXkXfXfXbXdXdX4X",
"aX_ yX6X_ 7XQ 0X-XfX-XyX_ yX .yXo M s.3.CX3XtXyXtX' aXU yX| 3X] tX` 4X4XsX_ fXW 3X_ yX| ` R P P.Q.bXgX! ;XtX~ 4X| yX` tX` iX_ _ ",
"` X.4X-XtX' tX| ` 7XQ -XQ >XW ;XU 0 m.N.AX3X0X` 4X` | U ..8X;X4X;X_ ;X6XQ | -Xo.<XR dX! tXo x m.E.ZX_ aXQ 4X .6X| ,XyX..3X;XT <X",
" .Q | aX' 3X` -XyX..Q pX-X` 8X .I i m.1.bX-X .| 8XQ | wXyXI gXI 8XtX` lXU lX` ;XQ 7X;XQ | + : m.W.CX' dXo.` yXrXO.| ,X-X` { -X<X",
"4XW 7X_ ` tXQ 8X| aXQ  ..._ pXW O f N.e.AXgXU Q 4X| dXI yX` tXQ yX..;X-X] tX_ tXo.` ` 3X_ I t C.E.ZXaXQ ^ yX-X| | tXQ yX! ..aXQ ",
"tX| tX_ 3X..;XtX` 8X .! 7X4X .3XI p h.e.CXW aXaX..8X| { ;X_ -XT 4X| 4X`  .<X_ -X| W ,X| _ I g f.Z.bXQ 6X-X3X .yX;X . ._ 4X_ pXU ",
"4X3X-X' 7X;X] 4X`  .! 7X` pX_ tXR k 5.S.CXO 6X .pX` ..o.3XO 2X_ O.W 7XO.! 7X7X_ 4X_ 8XW 7X@ D C 5.CXQ dXQ ` I dX..3X` ' ` pX! W ",
";XQ 4X| ` :XQ -X .7XU zX_ |  ...o f 2.Z.NXlXO ` 6XQ aXW -X` aX_ 4X` ` yX| ] 7X..4X` ,X_ 7XI 0 -.m.bX_ _ Q yXW pX` hXQ sXQ aX_ _ ",
"W I Y W U Q O U W ^ U U W U W I @ p n.h.4XE O W I I O W U U U I U U U U U Q U W U I U Y I @ * x.H.xXI I U T O W I W ! W W I W E ",
"s 0 g f p = D t k = z , t e f a t z I.W.4.x d.r t a y j D e m g p z p i i p 3 & : : $ s $ :   P 4.n.7 h , m M > 7 $ u . 9 a i 6 ",
"U.9.T.J d.F m.x.b.L.C.~.E.K L.k.v.N.}.H.!.!.{.M.M.a..Xs.y.v.E.b.M.J f.M.c.1.P K 9.0.J e.b.a.L e./.j.N.g.U.L.s.i.b.f.D a.x.n.M.# "
};
