/* XPM */
static char *_2151bf66d584492aab81acdf0c9e318CkMUjEQIHPRGQSzt[] = {
/* columns rows colors chars-per-pixel */
"64 64 256 2 ",
"   c #2C352A",
".  c #35332D",
"X  c #3B332C",
"o  c #3A3829",
"O  c #352D33",
"+  c #2D3435",
"@  c #2B363B",
"#  c #343334",
"$  c #3A3433",
"%  c #3C3B35",
"&  c #33343A",
"*  c #3C3C3C",
"=  c #353939",
"-  c #2F2E31",
";  c #5A3C19",
":  c #523918",
">  c #643C1D",
",  c #48392B",
"<  c #443C35",
"1  c #433D3C",
"2  c #483938",
"3  c #543A28",
"4  c #633C21",
"5  c #3C413C",
"6  c #384239",
"7  c #2C423F",
"8  c #5B431E",
"9  c #4F4319",
"0  c #66451D",
"q  c #76481B",
"w  c #73460F",
"e  c #47422B",
"r  c #5C4021",
"t  c #584627",
"y  c #43413D",
"u  c #4C423B",
"i  c #484234",
"p  c #544638",
"a  c #6C4623",
"s  c #6D4A24",
"d  c #6B4B2B",
"f  c #654627",
"g  c #734C25",
"h  c #724D2A",
"j  c #784A27",
"k  c #79532D",
"l  c #664B36",
"z  c #7A5536",
"x  c #745036",
"c  c #273943",
"v  c #3C3D42",
"b  c #393A45",
"n  c #343F5B",
"m  c #1C3645",
"M  c #433E42",
"N  c #453C47",
"B  c #423F52",
"V  c #3D4244",
"C  c #3B444B",
"Z  c #374449",
"A  c #384955",
"S  c #354C58",
"D  c #434244",
"F  c #4C4B44",
"G  c #4C4B4C",
"H  c #474748",
"J  c #534D4B",
"K  c #534A47",
"L  c #53534C",
"P  c #5A544A",
"I  c #494B56",
"U  c #534D53",
"Y  c #5D4E51",
"T  c #4E5455",
"R  c #4D555A",
"E  c #4A5859",
"W  c #545453",
"Q  c #5A5453",
"!  c #54545B",
"~  c #555A5B",
"^  c #5B5C5B",
"/  c #595857",
"(  c #4C534B",
")  c #665648",
"_  c #635957",
"`  c #6E4E4A",
"'  c #5B635B",
"]  c #65625A",
"[  c #595C64",
"{  c #4D5564",
"}  c #645C63",
"|  c #596267",
" . c #5B6372",
".. c #666666",
"X. c #6C6F72",
"o. c #88562C",
"O. c #965B2C",
"+. c #8D5C33",
"@. c #8D5B3A",
"#. c #865734",
"$. c #935C34",
"%. c #9C5D34",
"&. c #955D3A",
"*. c #9B5E39",
"=. c #915539",
"-. c #854D30",
";. c #A45D34",
":. c #8D6237",
">. c #9D6235",
",. c #94633B",
"<. c #9C623C",
"1. c #9A6739",
"2. c #9A642C",
"3. c #A26235",
"4. c #A3643C",
"5. c #AA653B",
"6. c #A56A3E",
"7. c #AB6A3C",
"8. c #A86534",
"9. c #B66A38",
"0. c #B9763D",
"q. c #AB6B37",
"w. c #8C501E",
"e. c #C3763E",
"r. c #C26C3B",
"t. c #945C41",
"y. c #875C41",
"u. c #9B6543",
"i. c #996846",
"p. c #8D6344",
"a. c #A46442",
"s. c #AA6543",
"d. c #A56A43",
"f. c #AC6B42",
"g. c #A9694C",
"h. c #B36D44",
"j. c #B66D48",
"k. c #AD7245",
"l. c #AC754C",
"z. c #B37144",
"x. c #BB7444",
"c. c #BC7A45",
"v. c #B4744B",
"b. c #BC754B",
"n. c #BD7A4B",
"m. c #B57A48",
"M. c #B97753",
"N. c #AC7456",
"B. c #AD6D51",
"V. c #C37945",
"C. c #C2764A",
"Z. c #C47B4B",
"A. c #CC7D4C",
"S. c #C87746",
"D. c #D37D4C",
"F. c #D47B45",
"G. c #C57C52",
"H. c #CB7D51",
"J. c #C97A56",
"K. c #D17E52",
"L. c #D37C58",
"P. c #C57B60",
"I. c #BE8353",
"U. c #C9824D",
"Y. c #D4814C",
"T. c #DC854C",
"R. c #DB8B4D",
"E. c #D78347",
"W. c #CD8153",
"Q. c #C68357",
"!. c #D48353",
"~. c #DB8653",
"^. c #DC8954",
"/. c #D68A5C",
"(. c #DB8B5A",
"). c #D78758",
"_. c #DF925C",
"`. c #E5884D",
"'. c #F9964B",
"]. c #E18652",
"[. c #E38A55",
"{. c #EA8B54",
"}. c #E38C5B",
"|. c #EB8D5A",
" X c #E08559",
".X c #F38D58",
"XX c #EC9255",
"oX c #E5925D",
"OX c #ED935C",
"+X c #E99659",
"@X c #F39355",
"#X c #F2945C",
"$X c #F59B5D",
"%X c #FC9D5D",
"&X c #FB9556",
"*X c #FA8E4E",
"=X c #FEA25E",
"-X c #D78D62",
";X c #EC9562",
":X c #E99866",
">X c #F29562",
",X c #F49B63",
"<X c #FC9C63",
"1X c #FB9E6A",
"2X c #F79B68",
"3X c #F0946C",
"4X c #FDA265",
"5X c #F6A26C",
"6X c #FDA36C",
"7X c #F9A76B",
"8X c #ECA679",
"9X c #F6A474",
"0X c #FCA473",
"qX c #FDAB74",
"wX c #F6AA7B",
"eX c #FCAD7C",
"rX c #F6A777",
"tX c #F6B27E",
"yX c #FCB27D",
"uX c #FCB479",
"iX c #F7AF6D",
"pX c #FCAE83",
"aX c #F9AD8B",
"sX c #F4B283",
"dX c #FDB284",
"fX c #F5B58C",
"gX c #FDB48C",
"hX c #FCBA8D",
"jX c #FABB88",
"kX c #FDB593",
"lX c #F4BC95",
"zX c #FCBA94",
"xX c #F4BB9B",
"cX c #FDBB9B",
"vX c #F7B598",
"bX c #EFB58F",
"nX c #FCBDA2",
"mX c #F6BCA4",
"MX c #EFBEAA",
"NX c #FDC29C",
"BX c #FEC296",
"VX c #EFC08A",
"CX c #F6C4A4",
"ZX c #FDC3A4",
"AX c #FDC4AB",
"SX c #FECBAC",
"DX c #F7C9A9",
"FX c #FDCCB3",
"GX c #F8C9B5",
"HX c #FDD3BB",
"JX c #FCD4B6",
"KX c #F9CEAA",
"LX c #F9D7C4",
"PX c #FADFD1",
"IX c #FBE3C9",
"UX c #F6E2D4",
/* pixels */
"W T lXcXnXnXcXcXxXNXG.o.1 ! vXcXNXxXnXkXcXzXzXcXcXcXcXzXgXv.u.- W $X&X6X&X,X~.`.Y.(.!.S.G.l.#.: - W uXlXxXgXkXBXpXyXdX1XW.+.$ i ",
"Q ~ nXSXFXnXZXcXBXkXJ.o.% / cXZXzXkXzXaXgXdXsXdXpXpXpXdXeXM.d.% P oX0XpXqX%XXX;XT.].^.^.Y.b.>.j v ^ uXkXzXjXgXkXpXeXpX1XW.+.= 1 ",
"U ! cXCXNXlXhXkXhXwXZ.o.5 [ cXZXgXeXeX0X5X5X6X0X6X7X0X7X;Xb.5.y I G.<X6X;XY.F.G.C.b.f.f.6.<.o.g C ^ 4XeXwX7X0XrX0X5X0X;XZ.+.+ D ",
"! ! lXzXfXpXtXpXeX:XC.o.5 } cXZXpX0X6X#X#X#X$X<X<X<X<X%X{.V.*.1 ! i.S.D.h.d.;.i.a.u.&.+.$.+.k 4 G ^ >X1X:XXXOX#X;X+X:X[.z.o.+ M ",
"W W kXBXuX0X6X6X6X(.j.o.5 } cXnXeX5X4X$X$X#X%X$X&X%X<X%X{.G.<.D K F { ! F F , 5 1 1 D y % M H b L ~ }.>X}.R.~.].].T.(.S.7.-.+ 1 ",
"W W eXyX1X<X%X<X<X!.h.j * ^ cXCXeX5X4X=X<X>X#X@X#X@X<X4X}.U.<.D ( Y ..X.X.X.......' ^ / L U ! ! ) ~ H.}.R.A.H.A.Y.A.!.b.4.j + M ",
"W W rXeX#X#X@X$XXXW.a.h v _ cXcXeX,X=X=X<X1X,X@X#X$X>X$X|.n.<.v ! 9.|.8XlXxXlXlXhXwXrX9X;X].S.8.` / V./.!.K.J.Z.A.Z.I.x.>.j + D ",
"Q W rX0X|.|.^.^.T.A.a.d V _ cXxXyX=X=X=X4X6X6X%X#XXX|.#X|.c.<.y  .@XqXnXcXcXgXcXxXcXZXkXwXrX_.b.4.] 0.A.S.S.b.c.b.c.n.h.&.j + 1 ",
"T Q rX6X[.).^.(.W.M.2.q v | sXnXeX4X%X%X4X5X6X6X<X#X;X.X[.C.<.* ..6XlXcXyXxXcXkXNXCXSXxXeX%X>Xc.u.Q 2.e.x.l.k.g.c.M.0.a.,.a $ M ",
"! Q 5X1X].!.Y.Y.A.M.O.0 1 | gXcXuX4X=X=X7X5X6X<X#X@XOXXX~.z.<.y | vXCXnXfXCXCXkXZXAXFXcXpX<XOXC.u.2 d @.O.;.7.9.h.g.q.3.$.a X 5 ",
"T L oX;XE.Z.S.Z.S.j.o.f 1 T dXdXqX$X$X%X7X0X6X2X@XXXOX+X!.z.,.1 _ MXkXzXxXcXcXgXnXnXAXxXpX<X>XV.8.+ m @ a k z o.O.1.8.$.#.f . 1 ",
"T Y !.oXS.n.x.C.C.s.-.f D ~ eXdXyX6X4X4X6X6X1X&X#X@XoX{.).b.<.1 _ nXzXcXcXzXkXkXCXZXDXzXyX<XoXc.;.. . O 2 @   j d h %.+.z l # N ",
"T Q U.(.V.f.h.z.9.=.s 3 y ^ 5XyXpX0X0X1X,X,X$X@X@XOX}.].).b.u.D _ NXAXmXNXMXvXnXCXNXzXjXqX<X}.m.1.c = < 2 M X # b $ 0 g k d . 5 ",
"T Q b.H.x.d.6.<.>.j 3 , % ^ ;XqX0X0X1X2X#X#X#XXX|.}.}.!.H.f.<.M W tXZXkXkXAXzXcXkXgXpXrX6X>X!.h.o.i o.x.4.d.>.#.a 2 v $ : ; X H ",
"~ W z.b.z.u.a.+.+.k 3 $ D / (.5X0X6X5X;X}.}.}.~.~.!.Q.A.x.4.$.D J I.8X5XqXpXqXrXrXrX3X+X;XK.h.$.` i k.3X>XF.b.N.5.#.t $ & 2 M 1 ",
"R L 5.5.4.#.+.j g d o * V ! K.+XXXXX+X~.D.D.K.S.V.C.b.h.6.>.+.% v p b.!.Q.D.E.G.m.S.0.e.c.f.$.h 2 i.&X+X[.D.A.c.z.s.%.f $ 6 Z v ",
"W L G D * M 1 * X # * D H ) i.M.j.b.d.d.%.3.u.>.u.*.3.3.<.z u v U F ` p.g.4.<.<.4.6.t.a.d.%.d , t J.3X>XU.b.b.v.g.M.$.w * * = D ",
"~ [ ' ^ ^ ' / W I V V I { ~ F < 1 V D D * 2 < A H M V v 5 y 1 K T ! F F y i D * D 5 u V 5 c b I :.:X&X`.0.z.b.0.8.q.q e * V H * ",
"AXAXZXcXzXdXwX:XOXE.9.%.#.) } | ] E ' P V ! J L L / } [ [ | ^ [ { | [ ^ W T ! H = i 7.9.3.u y 1 j.|. Xz.1.u.s.*.$.o.j   > d.^.qX",
"FXFXFXSXZXZXNXNXfXdXuXdXdXhXfXlX7XeX0X[.B.I ^ dXhXkXkXhXhXhXuXrX%X@X`.~.U.S.V.7.C D s.M.;.Z = V s.x.7.:.#.-.-.k z > 3 b -.W.,XdX",
"JXJXJXDXCXDXZXZXSXCXnXAXAXFXSXAXFXmXsX#Xh.M H e./.Q.G.x.c.Z.x.x.e.S.C.M.M.M.N.$.N H #.<.w.y u D j j 0 8 ; ; r 8 t 0   % p.).ZXNX",
"FXFXFXDXDXAXAXAXZXNXnXnXxXlXkXgXvXnXeX*Xg.H Z V F K D b v N v H V C v D % 1 u i , H D A = Z F 2 6 # # # = O #     , % a s.%XNXlX",
"SXKXSXSXDXDXCXnXzXfXdXhXzXkXgXeXzXfXuX&X1.< H F K J H 5 D 5 % K F J P / L L W E W T W ! J ^ ^ W L G U U U H D * 2 = M j J.cXSXxX",
"nXZXZXnXnXZXZXnXkXfXeXuXeXeXsXpXeXdXeXoXg.M G o.d.v.z.7.k.z < I +.u.s.6.4.f.v.6.g.;.;.a.u.>.:.a.4.1.<.+.$.+.#.j l C i ,.~.xXBXlX",
"kXkXcXcXcXkXgXsXyXeXdXeXyXyXeXyXyXdXpX#Xu.C ! q.x.z.v.k.s.o.D ( $.1.d.d.d.a.s.4.8.<.,.$.u.%.<.%.O.O.+.:.+.+.+.-.0 , K 5.0XnXcXcX",
"lXlXcXvXzXkXdXdXdXeXsXwXeXeXpXeX5X5X6X@X6.D W 9.4.3.3.<.*.o.* H d +.O.O.O.O.,.,.+.+.o.%.+.@.@.+.=.#.k -.-.#.-.j p @ C n.yXNXgXhX",
"hXjXdXwXyXyXwXeXdXpXdXdXdXeXrX9X6X0X1X@Xf.* ! k.d.>.*.&.*.o.= H , l s s s d d f l f q q 0 d g q d d f 8 ; ; ; 3 X v H }.dXkXcXxX",
"gXdXqX0X6X0XqX0X6X6X6X6X6X1X>X#XOX>X@X`.f.% ! v.d.>.$.+.&.-.O D = * + + @ + $ X - X X m . - . # . # % . X . & @ % u T $XyXrXsXpX",
"2X:X}.R.R.R.~.~.).!.U.D.W.Y.Y.!.W.).).!.i.1 L d.d.$.=.o.&.k # D lXcXzXkXzXhXyXqX6XE.$., -.i.u.,.1.&.$.$.+.#.f : v 1 K &XqX@X@X@X",
"g.g.s.d.d.s.s.s.s.4.<.<.a.4.6.6.d.h.7.6.#.p ` 9.d.+.$.:.<.o.$ G HXnXpX0X0XrXwXrX@XT.i.c +.4.7.s.7.;.<.<.,.,.z l b M U v.M.a.7.f.",
"5 5 v D V D V D V v v D V D D V v M * D V S R N.d.O.%.+.,.o.= J HXcX3X&X$X#XOX|.@X`.s.- -.o.O.o.+.k z k g q s f   V A e = @ X & ",
"W W W W W J W W Q W W L W / _ _ ^ _ U W J [ P 9.s.+.&.+.*.o.= W JXZXpX1X4X#X#X&XoXE.7.m , @ # c # O & = # $ % . X H T i % C 2 M ",
"! ) G.9XkXgX7XvXpXpXaXpXdXpXeXeXfXgXfXeX5.! R x.z.%.=.:.&.#.$ W HXZXrX0X6X<X4X#X&X!.6.b n p ~ { ! ! ! U U ! ^ ! R W ! H 1 3 Z 5 ",
"Q Q.pXkXCXKXSXPXIXIXIXIXIXIXIXIXLXJXSXhXm.G T z.k.>.%.+.$.o.O W HXZXrX6X4X<X<X$X>X/.q., ) +XjXpXrXuXuXyXqXqX<X>XT.T.!.l.=.a D F ",
"L 0XBXNXCXLXLXUXPXPXPXPXLXLXHXLXLXKXDXhXQ.D / S.z.>.<.,.&.o.# ~ HXZXdX6X%X4X<X%XXX(.4.O U fXZXfXhXdXpXeX9X,X$XOX&X@X|.U.u.h b v ",
"T fXBXKXJXIXGXLXHXLXHXHXFXDXAXZXAXZXcXdXQ.% W c.v.4.4.<.<.+.= ^ HXZXdX4X%X=X=X=X@X(.4.b R fXzXkXuX5X:X;XoX[.].]./.!.W.c.<.g * % ",
"Y xXCXHXJXJXKXHXFXFXAXMXZXZXZXnXvXzXkXqXU.1 ! m.k.3.4.1.4.+.# ^ HXCXdX6X%X=X=X%X&X).f.& L 0X6X6X;X[.).^.!.D.H.H.K.E.Y.V.3.g & D ",
"` bXcXFXGXGXKXGXnXnXcXzXzXzXkXkXfXzXsX5XV.y ! x.k.4.6.s.s.+.# ^ HXZXyX4X4X%X4X<XXXK.6.$ ~ rX0X;X].F.F.D.D.A.D.W.L.K.K.Z.s.k @ b ",
"/ fXZXFXZXSXZXkXzXhXjXsXtXsXtXtXNXBXsX;Xc.1 ~ x.b.7.h.h.j.>.. ^ HXZXrX4X4X<X7X5X#X}.7.- L <X<X`.!.A.H.!.W.W.).).L.D.D.A.h.$.$ 2 ",
"E dXDXGXNXNXkXuXdXpXdXeXeXeXdXgXcXvXgXOXC.1 ! b.b.0.h.z.b.>.$ ^ HXNX9X7X4X,X6X0X{.(.5.* / 0XrXoXW.!.!.(.~.T.^.].).R.~.U.h.+.+ V ",
"W 7XHXGXNXzXyXdXyXyXeXyXpXsXgXkXMXcXfXXX0.6 ! F.F.h.k.b.S.d.$ ^ HXNXrX0X0X9X7X7XOX{.k., L /.7X{.).^.).~.~.).~.(./.).T.-Xb.+.. y ",
"~ hXDXCXlXxXdXsXaXsXdXdXdXdXkXzXdXdXdX>XV.V { K.J.l.n.H.S.u.  ' HXZXeX0X6X6XqX6X1X#Xv.O W ).4X[.R.~.T.~.[.[.|.|.|.OX{.).S.,.X M ",
"H dXhXkXdXgXdXeXyXyXyXyXeXwXtXsXyXqXeX|.j.i / 0.U.n.e.S.S.i.b / LXZXeX1X7X5X6X<XgX1Xn.& T ).=X#X}.}.].[.}.|.|.}.`.XXXX^.U.u.$ * ",
"[ 8XdXuX7X8X6X6X0X0X0X0X0X0XqXqXdX9X3X(.g.1 ~ i.q.7.q.5.5.z 5 _ HXcX0X6X6X0XqX0X0X<XC.= / ).%X;X}.^.~.).~.[.].~.}.}.|.K.V.i.O C ",
"P k.oX#X@X;X@X@X{.XXXXXXXXXX+X+X4X$XR.Y.u.i E L y * O O , y S ) SXzX0X0XeXdXsXpX5X,XC.* G h.D.A.G.Z.Z.C.Z.Z.G.G.b.V.U.v.0.+.. V ",
"J l u.v.v.v.h.h.v.b.v.j.v.b.x.j.j.z.8.6.@.2 _ _ .. . . ._ _ { ] SXkXrXwXdXhXgXdX6X;Xx.y D #.i.i.>.3.>.4.3.>.3.3.4.a.s.i.$.j X 2 ",
"E Z D N D 1 M D M * * * * 1 y 1 C v * D V v R [ ,XNXSXZX8X1./ _ DXcXaXdXkXlXhXdX<X-X4.y v e 2 , # # # # # # # # # # . - . . c Z ",
") [ ^ ..] ] ..| ^ / / / ....X.X.X.] ] ~ R J P ~ tXSXAXZXyXk.Q ^ HXSXcXcXcXkXdXeX#XQ.<.F I T | ! W W W / T W W W W W Q { P ) R W ",
"qXeXyXsXsXtXtXqXF.>.! ;.gXLXkXBXcXcXAX&Xc.1.D ! zXZXkXeX@Xi.I _ LXLXCXNXcXpXqX@XF.v.o.D S ) $XpXNXxXnXcXcXcXkXkXcXzXcXcXzXcXcXcX",
"aXfXcXZXSXAXZXkX:XU./ B.SXFXyXcXgXgXvX&XU.>.y / vXvX7X%X~.u.y P SXHXCXzXdX,X;XW.v.o.* K _ {.,XgXvXcXcXcXvXkXgXpXsXsXsXpXsXsXsXsX",
"(.;X5XwXyXdXrX5X;X0.I A.ZXcXpX9XiX9XwX#XM.-.M [ eXsX#XXXL.t.i L LXSXdXqX#X].T.9.#.C ! [ S.|.%XaX4X6X0XqX7X,X$XXX#X@X@X@X&X#X@X@X",
"F.D.].+X>X>X+X[.F.>.H `.gXsXpXXX+X*X}.D.i.g 2 { '.qXoX).Z.i.D U HXSX8XoX-Xn.d.$.i G ] e.-X=X5X%X|.|.}. X).!.D.Y.!.K.!.!.).!.K.K.",
"h.x.V.A.A.U.U.S.z.q.K >XfX6XoX].}.].D.9.,.g i F b.oX(.Q.V.+.v I qX;X^.Y.9.3.` u C Q M.S.|.8X(.].).!.U.Z.n.c.c.c.n.b.b.V.b.n.b.b.",
"@.+.<.<.*.*.*.<.,.z K 1XwXOXH.e.0.d.d.O.x 1 Z V C &.r.l.7.w.$ G 4.7.4.>.+.x p K I a.r.B.8.9.s.7.7.6.4.<.%.&.=.=.+.+.+.:.+.+.+.+.",
"s s s h g s g g x i ~ ;X+XG.v.8.h.<.p.l 2 1 D 5 V , g +.o.f = u C v u u M C V 5 F O.q x s q x h j j h g g s a s 0 q a a 0 a g g ",
"1 * * v D M D y < = / M.S.8.$.t.@.w g 6 L M.{.D.6.v * f j u S P W W R W W W L T V * D @ * = # $ = X # # # # + = & # # * # # * * ",
"y C E / L } ) ~ W / W W ~ G V V i H 6 b K gXsX'.).5.V v V ) /.wXcXzXdX9XOX(.Y.A.7.5.$.k l P L T W W W W L W W W W ! F H V % 1 A ",
"< ) -XhXcXCXcXxXzXcXcXcXzXgXgXzXfXkX-X_ _ hXkX0X{.D.+.1 H :XdXgXHXHXSXSXNXNXcXxXBXhXgXgXgXkXvXvXgXkXkXkXkXkXkXkXgXfXpXgXgX;X4., ",
"C [ dXNXcXcXnXgXkXkXkXfXpXeXdXdX:X(.9.6 Y VXsX3X(.G.;.= 6 dXNXAXxXCXcXkXhXkXkXzXaXaXgXdXjXjXsXsXtXsXsXtXtXsXsXtXuXtXqXeX0X~.:.  ",
"5 E gXlXaXgXdX7X5X,XOX$XOX#X@XXXH.u.k = Y hXqX.XA.b.u.X % zXgXpX9X5X4X>X#X#XOX+X.X.X@X#X@XXX#XXX#X#X#X;X#X#X#X>X;X>X>X.XW.h.#.< ",
"i G 0XtX6X;XXXXX[.~.T.).!.!.!.Z.h.o.f 1 L bXwX|.e.x.,.O i rX5X+X|.|.{.[.].].].].R.R.R.^.T.~.^.].^.R.R.R.^.R.R.R.D.A.D.U.l.1.x . ",
"C ! `.;X|.!.L.E.E.D.Y.D.C.x.z.h.5.o.8 N L eX7Xn.k.4.k c V E.>X$XY.!.!.U.U.K.U.W.J.J.W.L.J.G.C.x.n.b.b.b.b.b.b.b.S.b.0.0.d.%.k & ",
"v ..z.A.z.z.7.4.d.d.d.u.<.&.@.&.=.j 3 M ) -X{.4.O.%.k & < 9.[.T.Z.c.z.7.s.a.6.6.6.d.6.d.6.4.3.>.*.<.<.*.<.<.*.*.>.,.:.+.+.j ; + ",
"% W u x 0 j w l a f ; ; 0 0 ; 8 9 o b V ( ] t.a d 3 M $ e ` ,.&.$.+.-.h d s s s q 0 a f r 4 8 3 f r r r r r 4 f ; t > 4 3 : : # "
};
