/* XPM */
static char *e9fdff04285d45e08caafb59614e79e2VcEh380kD7KGpUpp[] = {
/* columns rows colors chars-per-pixel */
"64 64 249 2 ",
"   c #1A1C17",
".  c #1E1E04",
"X  c #330500",
"o  c #3C0201",
"O  c #390901",
"+  c #241C1A",
"@  c #2D150D",
"#  c #1C241D",
"$  c #192219",
"%  c #23221E",
"&  c #282517",
"*  c #3A2C19",
"=  c #2E2C13",
"-  c #1C1C22",
";  c #271C24",
":  c #192624",
">  c #1C342A",
",  c #1F3533",
"<  c #252423",
"1  c #2C2524",
"2  c #252B24",
"3  c #2C2B24",
"4  c #2B252B",
"5  c #252C2B",
"6  c #2C2C2B",
"7  c #25262A",
"8  c #33252A",
"9  c #332B2C",
"0  c #3A2B2C",
"q  c #342825",
"w  c #24322C",
"e  c #2B322C",
"r  c #2B3728",
"t  c #34322D",
"y  c #363727",
"u  c #2B2D33",
"i  c #282B35",
"p  c #362B34",
"a  c #2C3434",
"s  c #2A3936",
"d  c #343434",
"f  c #3C3435",
"g  c #333C35",
"h  c #3B3A34",
"j  c #34363B",
"k  c #3B353C",
"l  c #343A3C",
"z  c #3B3B3B",
"x  c #450101",
"c  c #4C0201",
"v  c #490706",
"b  c #540201",
"n  c #5C0201",
"m  c #5B0A01",
"M  c #560409",
"N  c #421E1A",
"B  c #640201",
"V  c #6B0201",
"C  c #640901",
"Z  c #680607",
"A  c #740101",
"S  c #7B0101",
"D  c #7B0A01",
"F  c #74020B",
"G  c #7A030A",
"H  c #760A06",
"J  c #710B07",
"K  c #452D16",
"L  c #473418",
"P  c #5B3D15",
"I  c #583A19",
"U  c #4D310C",
"Y  c #653B17",
"T  c #723F1B",
"R  c #433628",
"E  c #563B22",
"W  c #45393A",
"Q  c #4A3135",
"!  c #633C24",
"~  c #723F20",
"^  c #374539",
"/  c #314130",
"(  c #5D421B",
")  c #574518",
"_  c #4E4217",
"`  c #68471C",
"'  c #73441C",
"]  c #79471E",
"[  c #73521D",
"{  c #584425",
"}  c #47463A",
"|  c #504C33",
" . c #6A4524",
".. c #6C4C22",
"X. c #674926",
"o. c #734522",
"O. c #734B24",
"+. c #734B2B",
"@. c #794A26",
"#. c #675326",
"$. c #7B542B",
"%. c #745228",
"&. c #7B5933",
"*. c #764C32",
"=. c #766132",
"-. c #343C42",
";. c #3C3E43",
":. c #383645",
">. c #2D3B47",
",. c #453C45",
"<. c #533F49",
"1. c #3D4444",
"2. c #3D4B4B",
"3. c #3C4847",
"4. c #3B5248",
"5. c #3C4F53",
"6. c #454544",
"7. c #4B4443",
"8. c #444C44",
"9. c #4A4B44",
"0. c #44444A",
"q. c #4A454B",
"w. c #444B4C",
"e. c #4C4C4C",
"r. c #54444B",
"t. c #534C4B",
"y. c #574947",
"u. c #4A534D",
"i. c #465548",
"p. c #54534E",
"a. c #59544C",
"s. c #444C52",
"d. c #4B4C52",
"f. c #484856",
"g. c #5B4C53",
"h. c #554C56",
"j. c #4C5454",
"k. c #495857",
"l. c #535353",
"z. c #5A5454",
"x. c #53555B",
"c. c #5C5B5D",
"v. c #575956",
"b. c #634B54",
"n. c #635759",
"m. c #62524F",
"M. c #4F6256",
"N. c #4B5765",
"B. c #5C6463",
"V. c #646464",
"C. c #6B6B6B",
"Z. c #696565",
"A. c #747474",
"S. c #7C7C7C",
"D. c #747C78",
"F. c #707272",
"G. c #665960",
"H. c #830102",
"J. c #8B0102",
"K. c #83020A",
"L. c #8C020A",
"P. c #890A06",
"I. c #930102",
"U. c #9B0102",
"Y. c #94020A",
"T. c #9C010A",
"R. c #970907",
"E. c #880510",
"W. c #9A0512",
"Q. c #91150A",
"!. c #A30002",
"~. c #AA0102",
"^. c #A4030A",
"/. c #AC010B",
"(. c #A70A04",
"). c #B30101",
"_. c #BC0102",
"`. c #B3010B",
"'. c #BA040A",
"]. c #AC0412",
"[. c #AD0C11",
"{. c #C30102",
"}. c #CC0102",
"|. c #C60608",
" X c #D30101",
".X c #DA0002",
"XX c #D50409",
"oX c #E40102",
"OX c #EC0205",
"+X c #F50003",
"@X c #854418",
"#X c #834B27",
"$X c #84542C",
"%X c #89572C",
"&X c #855532",
"*X c #8B5533",
"=X c #845C34",
"-X c #8C5A34",
";X c #865B3A",
":X c #945A36",
">X c #945330",
",X c #A85D3B",
"<X c #A05B2B",
"1X c #866238",
"2X c #99663B",
"3X c #82632C",
"4X c #A4653D",
"5X c #AB663C",
"6X c #B8713C",
"7X c #9C5845",
"8X c #9B6945",
"9X c #9E714E",
"0X c #986D55",
"qX c #A36443",
"wX c #AC6642",
"eX c #A46C44",
"rX c #A46D4C",
"tX c #AA6948",
"yX c #B36847",
"uX c #A57248",
"iX c #B97747",
"pX c #AD7052",
"aX c #9A6A5B",
"sX c #C47748",
"dX c #CC7A53",
"fX c #78827C",
"gX c #B08149",
"hX c #C9834A",
"jX c #D6854C",
"kX c #C68456",
"lX c #D98856",
"zX c #D09342",
"xX c #E48C47",
"cX c #E38759",
"vX c #F09866",
"bX c #F4A969",
"nX c #797A81",
"mX c #847E80",
"MX c #7F818E",
"NX c #838383",
"BX c #8C8C8B",
"VX c #898988",
"CX c #949494",
"ZX c #9A9A9A",
"AX c #999498",
"SX c #8D928F",
"DX c #A5A6A6",
"FX c #B3AAAB",
"GX c #A0979C",
/* pixels */
">.R ^ k h f g d :.Q h W s h d W z j d j z d d z d z z z d z z k d z d z z z j d s h h l f h g h W g k r k h z j z Q g :.h ^ r ^ ",
"f.W j.0.3.j.} r.x.w.u.7.6.5.5.g.9.d l.6.6.9.l.6.e.l.l.e.x.l.l.8.8.e.7.6.0.9.e.9.z.z.5.v.v.z.j.w.3.e.2.W ;.W ,.9.u.x.^ s.9.} <.:.",
"/ ~.!.T.U.I.U.I.I.I.H.T.G } 4.v.DXDXCXAXZXCXZXCXZXCXCXZXAXZXZXZXAXZXCXZXNX6.d l.+X+XoXOXOX XoX.X.XoXXX XXX{..X X_.}..X_.{._.`.} ",
"^ U.Y.V S J.C V !.C J.S b * 7.t.FXCXV.VXV.CXV.BXV.BXA.BXA.BXV.VXV.VXSXS.e.u 9.z  X(.{.).).~.{.}.D XXA |.).|.H.).!.D _.I._.).S w ",
"y.I.C B A C V A n A B M M w 5.x.AXVXV.V.S.Z.p.S.S.c.C.S.gXN.Z.VXl.S.F.c.q.a 9.l.}.!.).V V ~.J.C S !.A U.I.U.J.~.K.J.U.B I.B B 5 ",
"w.T.b V S n A A V n V o + & t.g.ZXV.BXS.Z.fXe.S.Z.A.p.S.N.N.V.S.e.D.B.k.e.6 6.q.}.V !.A J.U.A U.A ~.H.).H.~.V R.S J.^.K.'.B M p ",
"t.J.A c V G b C b A B c @ t 9.j.VXSXV.S.Z.V.A.MXv.V.c.A.V.j.A.V.Z.j.aXN.6 d d 6.{.V ).Z W.J.A ^.V V L.U.D U.J.^.^.S ~.b U.Y.X 6 ",
"3.H.n B Z b S V b V n x & 3 2.r.BXVXV.fXx.S.e.S.x.S.l.F.C.j.V.nXl.A.V.v.d.< ;.9._.Y.~.n L.~.G H.A H.I.(.S ~.V !.H.I.U.A !.A x 8 ",
"} F V n n o b M c n Z M & 2 ;.f.F.F.t.x.7.V.x.j.B.c.z c.V.l.B.j.;.V.t.x.d 6 ;.w.'.A V B V A n S b A n L.x F c K.V c V H.D H.x 2 ",
"W M M c c K @ . @ . . . @ q h l.V.e.d.d.e.q.9.p.q.t.9.6.t d d h d d z j e 6 z 6.J.B C n B B b V n B V b n b M n c n v n x o x w ",
"l.e.< : 8 u 4 6 , 9 1 2 % 3 h t.y.2 a 3 5 d ;   % + + d 9 % 3   + f % 9 0 1 9.t.s a 5 6 u l 6 2 a i 5 t < ;   % < 3 0 2 e 3 4 a ",
"p.h h ,./ 0.i.9.w.k k d k z 3.z 7.} 8.{ 9.q.0.-.k z d.d.1.w.j j w.0.s.w.s.w.x.;.2.e.b.c.g.l.Z.V.v.x.g.} } ;.;.^ i.g g.s.e.w.z.k ",
"OX}..X}._._._.)._._._.'._.{._.!.2.V.W bXbXlXxXhXlXlXcXsXhXsXsXjXiXhXsXiXsXiXiXiXhXiXsXsXpXdXgXsXiXiXsXpX0X} ,.t.+X+X.X}. X X X X",
").I.I.Q.J.J.`.H.I.H.'.B (.H./.c -.6.v.bX@X5XhX2XiX#X%XpX%X:XkX:XeX:X#X%XeX%XeX:XyX$.dX` gX%X8XyXhX<XlX9XK s j.z oX|.J.(.H.).U.~.",
"K.U.P./.S Y.S J !.J.V S I.].V X 6 6.e.xXuX@.5X#XeXeX-XuX' 2X#X] *XuX-XeX%XeX] 2X5X%X[ 4X%XyX` :X5X@.yX( I y W a.{./.V T.P.J.U.I.",
"A !.~.J.J.V T.A H.I.!.C ~.H.S o q z s.jX*.0X>X8X-X$X' 1X$X$.8X-Xo.8X-X$X@.$X*X-XtX( =.-XyX@.9X@.eXqX#.%.* 0 s.3. XH.).(.!.H.W.S ",
"R.H.J./.H.A S I.J /.J.A U.V A o 8 k ,.xX@.8XyX&X,X#.$.yX .@.5X{ %X5X-X%X%XeX` wX=XY eXT uX] 1Xo.tX] uXO.K 6 a r.}.'.A U.D ~.R.J.",
"S U.A /.A I.D J.V ~.B I.J.^.Z x u e.x.xXrX .4X;X4X8X..$X( &.] +.9X*X&.P 1X8X..*XY ;XtX~ &XrXX.:XqX] 2XO.R # g } !.S [.!.b T.A P.",
"S ].C n X S V T.V W.A x T.V V o > 0.x.6XrX+.$X( O.:X' 2X+. .:XI @.qX@.8Xo.*X+.*X$.X.8X@.$.&XP o.qX] -X+.K 2 z G.)./.A S M V T.Z ",
"X c b M v n v x o B v M b c c o h | m.5X+. .' [ #...#.( ` #.o.+. .Y P P I ` ` Y ) P ) P I { ( { I ` { L * $ 9.t U.m x V x o n x ",
"2 r q   9 < q $ # + % e 3 $   3 -.3.>.9.j s d 7 0 1 e 6 z a ;.s d 2 d r # $ : : : 8 6 p ; $ 4   6 6 1 6 6 -.e.j.} 6 t 9 a w N 6 ",
"n.j.d.f z j.h.j l.z w.w.d f z j ,.t.v.6.0.8.;.k l ^ W z z 0.0.| l.l t.0.W 3.p g h 6.6.9.B.l a ;.l d.e.3.l.6.z.d p.,.d ^ d.7.8.s.",
"z.DXDXZXCXCXCXZXAXCXCXSXVXCXNXCXSXBXBXBXSXCXVXSXAXMXVXnXt.z.m.Y.^.R.U.T.U.J./.R.R.I.I.I.H.J.Y.J.L.J.L.J.J.I.J.H.P.L.L.J.A Y.K.} ",
"h.FXB.fXBXV.BXV.BXZ.nXn.S.V.D.GXB.aXB.MXB.MXaX9.S.SXn.-.d 8.a./.J.V J.S H.A H.S A I.F S A b S V B A H B V S S J S B S A b K.o a ",
"j DXS.Z.A.A.S.V.p.V.S.A.Z.F.B.S.B.d.nXl.S.V.e.V.nXk.aX>.e <.c.I.J.A L.b K.b A B A A c S n A F n S n J.m I.B S n S K.B L.b m x 3 ",
"e.VXp.S.S.v.V.e.S.l.A.c.S.V.A.S.N.B.S.x.V.S.V.l.V.D.c.l 5 l.V.I.H.V S n S n A V J.H.C J.B S A n A V B S A V S V S A b J.c V o 3 ",
"0.BXS.V.MXh A.e.l.V.S.V.t.V.A.V.V.7.C.D.e.S.Z.1.mXc.^ ;.6 v.M.U.V A V V B B V S B V c A b F V B Z A V n S A S B S V V H.n V v u ",
"l.VXv.0.S.6.C.V.S.e.S.e.NX9.NXB.e.V.S.C.e.S.l.Z.c.B.S.:.1 9.u.!.J.V H.C J.V H.A V F B F b V n b K.c S b S M G A V n c V V B o > ",
"6.DXA.e.l.e.u.t.l.6.c.e.Z.9.V.l.p.C.h.v.7.l.C.l.A.x.x.j 8 g x.I.A V H.n A c V V n B n V B A B V b n F x n n n Z b V b A C B x p ",
"6.S.F.e.x.t.l.0.e.e.6.u.e.l.d.l.e.z ^ 6.;.z 6.6.} l k ,.< h c.F B n v n v n c c n n n M b b x b b c v n M v M b c M X c n b x 3 ",
"6.9.z 6 < 6 6 6 6 3 d < u 6 6 < d 6 6 6 z z d 6 2 a 6 p 2 } f.E 2 q 9 1 e 2 r 3 #   < $ ; 8 s W g 0     & r 1 3 t 1 0 6 q 3 0 w ",
"l.v.l.l.v.6.6.z 0.d j z 6.l.V.Z.l.l.x.6.6.9.6.z W l z W ^ W N.4.s.8.l.;.l.q.g.q.6.d ,.l W e.k.h.8.8.,.h 1.0.2.e.j.k x.w.u.,.l.-.",
"_.).).{._.~.}._.{.{.G <.^ p.lXcXlXjXlXlXjXlXsXiXsXiXsXiXiXiXiXsXdX6XsXiXsXiXhX8Xs.d.M.{.oXXX.X X.X X.X}.oX}.{.}.). X).).}.).{._.",
"_.!.).!.!.XX_.!.{.U.M z 7.h cX2X@.wX[ wXwX%.4X-X2XwX[ eX1X] tX4X` uXrX%.eX&XwXL f g.r.oX(.H.I.A !.I.m U.J.P.V I.A !.U.U.A Q.S T.",
"U.S J.!.H.U.S !.J.S o 4 0.x.lX%.qX%X-XqX#XqX2X@.pX$X>X .#X&XqX%X+.4XO.$.wX` rX* l l.z.}.!.c R.S `.S V (.S !.S I.A I.S J.S !.J.S ",
"I.A !.U.C ).A U.^.B O p s.W cX) uX4X=X2XwX#X4XO.,X1XyX( yXP :X1X8X#X#X2XyX$XqXU h k.Z.}.!.H.].V ).D U.I.~.!.D !.D ~.H.U.!.S !.A ",
"!.I.H.(.H.'.I.J.Y.V c p 3.v.dX8Xo.4X1XrX&XE 2X=X%X%X$.$.8X` qX$.*.%X:X%.&XrX-X* h j.n.}.S ~.U.V !.C !./.S H./.S U.S T.I.J.H.V H ",
"T.S H.!.J.!.S I.T.D X s r.r.cX..eX%XT 1XeX$.$X-XuX%X2X$.#XP ] 2X .wX8Xo.tX$X4XL d h.v.{.~.S ~.I.S !.J.J.J !.S U.A (.Y./.S I.U.S ",
"V S K.H.V S L.A V V x z t.1.<X+.4XyXP eX>Xo.yXO.rX..tX) &X+.rX*X' 2XO.2X5X..%XK 0 ,.l.}.`.v ^.H.U.!.J.U.H.~.D ).A I.B J.S ~.`.B ",
"c X c c c b c x x b v < 9.s.2X+...o.X. .X.+...X.I P { ! E X.I  .{ P ! _  .I U y w r.w.I.C B B B B B B B A n B n V b B V b c b x ",
"i > 3 9 5 p & a 9 < 5 a 6.l.9.6   ; < $ w 8 j s ^ q   : + + : 6 d < a 9 > u = u f 6.w.e.u 6 p 6 W g d.d 7 ,   ; : 2 a w 5 3 * e ",
"N.r.h.W f.k ^ 0.q.,.z j ;.0.q.j ;.l e.,.3.g.0.x.j.0.s.k ;.6.j.0.<.s.h.y 9.:.q.:.7.5.b.3.p.;.t.4.l.g.Z.b.g.<.t.z b.7.v.d.x.0 t.>.",
"R ).D A L.U.!.T.J.I.H.J.J.J.J.H.S J.I.D J.I.Y.H.I.J.I.I.H.J.I.S e z./ OXOX.XoX X.X X.XXX X_.{.).(. X{.!.).(.{.{.{._.~.{.'.'.].} ",
"9.^.V C V S b A A A S H B S C A H n K.B A V S n A n V H B B B c Q i.u.+X/.^.b !.n (.c !.V ~.B T.H.n I.P.A U.L.S I.H.U.A I.^.O w ",
"4.J.B c S B C S B A B S B B B V A b K.c A A m B S n G V A B G x i 8.s..XD !.C J.V H.n S Z I.G ^.n /.n ^.A Y.B T.H.A /.I.V I.x 9 ",
"3.!.Z b H.b A Z n S B K.B Z V F B S B V n B S c S b Z V A B Z o u j 7.}.H./.A B S /.A m ^.A m I.!.c (.V S !.S (.K.'.B K.b T.o 6 ",
"<.I.B C H.V b A V J S S n H.b S A n K.b V S b A H.n A H S V V x 2 d 9. X).c T.H.A I.n !.Z I.S J.b R.B /.H.S J.H.I.D V !.P.`.O 3 ",
"u.!.n x A H.n A b S n H.n V V H n b S x G n K.B A b G n S B F o & >.z.oXR.Z V !.b J.M !.n ~.n J.n Y.C Y.V R.S H.!.S U.L.B A X 8 ",
"g I.V v J.b V V A A V V A A V A S b V A c b S b K.B S A V Z A x : Q k. XA U.M J.B (.M J.^.H.c U.B Y.n U.S /.A ].A T.B R.S /.v & ",
"g.H.v x c Z b b M n n x b c c n b c c c M v b v b x b c c x c x e } v.!.C B Z A A n n Z V b c n M b M v v x v x x v b c v o X d ",
">.} 6 , e 4 6 w q 6 6 9 j z d 6   ; # ; i a 7 q : - : i 0 ; : u 7 f.:.8.9 s j 4 p i 4 -   9 :.k z % % i 6 e 0 . ; # q 9 2 w 6 u ",
"g.y g.g v.,.z.1.6.u.1.g.B.Z.l.s.N.W i.9.d.} ^ w h j } i.y.e.7.d 9.8.a.e k.r.3.w.6.3.9.7.i.} j.N.b.k.} ,.9.<.-.t #   g d } 9.v.W ",
"}. XXX}..X_.{.|._._.{._.{._.{.)._.P.} n.<.bXvXxXcXhXlXlXlXjXlXsXiX6XdXdXyXsXsXiXiXsXiXsXgXiXrX| g a.OXXX}.|.}. X_._.'.'./._._.|.",
"D U.B !.!.m I.n /.A '.H.I.V `.H.`.c a f.t.jXyXrXqXpX' yXY qX%XeX#.wX{ tX! ,X$.,XO.7XX.yX .@.K s 1.g.}.U.A J.!.B ~.V /.V R.A !.V ",
"!.E.A ).H.T.V W.H.C Y.B S n L.B J.o 3 q.3.zX:X8Xo.eX#.' I :X&.-XtX:X%.L _ #.$X;X..7X) 4X] pX* W s.j.XXn !.n ].B !.A K.~.H.T.L.b ",
"~.S b S ^.n U.B A !.S B U.J.C I.H.X 3 9.,.cX*X*X@.tX .=.:X8X' qX_ 5XU { tXX.5XX.%X{ &X3X` ' K e } m. XF U.S Z /.!.D S H.V m V L.",
"D I.B J.A V U.V U.S ~.m V S C !.n b 6 f.3.xXtXI @.tX` wX) tX%.,X` 9X) P ;X..8X+.eX&XY %.:X..L 6 6.x.}.~.C n !.K.S V ^.B `.B V !.",
"V /.S Q.n ].B L.~.V U.A B L.R.K.S o 4 w.^ jX_ yXrX' rX&X` 1XT &XI I I Y +.;X&Xo.-X .X.;Xo.X.* 6 k.r.}.V W.H.(.A I.U.V D c U.A I.",
"m /.J.J C I.U.n U.C H.v !.V U.C !.O 6 7.} cXU tXo.rXo.-X1X@.Y 2X) P U 8X%X` tX%Xo.8X` 8X` &XR 3 9 w.XXA L.n S b /.V !.n V A /.n ",
"S Y.b !.B A J.V A H.I.n /.b S H.H.x 9 f.z.dXrXI $.qXX.,X_ :X..8XX.E *.+.9X' >X2X' ;X+.%X` =X* * h 7.|.B G B !.v U.V `.A ~.V I.B ",
"b c c c c v c v v v b c c x M c X x w 3.r.pXU * * L K ! I { { E I I I ) I I ( I I E E E ! = R   8.l./.X o b x c c c v c M O O b ",
"6 6 1 , 9 4 5 6 6 w N u 2 a q 8 r ; j 9.u.} ^ r y 2 9 3 1 < 6 6 < t 9 < 6 9 7 7 <   < # q < - : k q.| w 0 q 6 e 3 # ;   : : 8 0 ",
"l j.z x.z s ;.0.0.s.2.s.v.x.l s.8.2.q.g.M.j.l.l.w.w.w.x.w.s.8.x.e.3.d u.w.0.2.l d w.u l 6.w.;.z 2.v.} s.:.z.<.9.2.r.g ;.W f.6.d.",
"l.p.l.p.l.g.v.a.v.h.a.l.y.v.t.l.z.n.p.j.h.b.x.j.x.p.g.v.l.l.l.l.l.v.g.l.v.g.e.n.p.p.v.v.j.g.a.a.h.p.a.h.x.i.k.l.x.b.M.g.j.a.v.u."
};
