/* XPM */
static char *af3a49ecf04c4441e41cd25dc8722790XNBbqACoLiYelYkB[] = {
/* columns rows colors chars-per-pixel */
"64 64 229 2 ",
"   c black",
".  c gray1",
"X  c #151515",
"o  c #161616",
"O  c gray9",
"+  c #181818",
"@  c #191919",
"#  c gray10",
"$  c #1B1B1B",
"%  c gray11",
"&  c #1D1D1D",
"*  c #1E1E1E",
"=  c gray12",
"-  c #202020",
";  c gray13",
":  c #222222",
">  c #232323",
",  c gray14",
"<  c #252525",
"1  c gray15",
"2  c #272727",
"3  c #282828",
"4  c gray16",
"5  c #2A2A2A",
"6  c gray17",
"7  c #2C2C2C",
"8  c #2D2D2D",
"9  c gray18",
"0  c #2F2F2F",
"q  c gray19",
"w  c #313131",
"e  c #323232",
"r  c gray20",
"t  c #343434",
"y  c #353535",
"u  c gray21",
"i  c #373737",
"p  c gray22",
"a  c #393939",
"s  c #3A3A3A",
"d  c gray23",
"f  c #3C3C3C",
"g  c gray24",
"h  c #3E3E3E",
"j  c #3F3F3F",
"k  c gray25",
"l  c #414141",
"z  c gray26",
"x  c #434343",
"c  c #444444",
"v  c gray27",
"b  c #464646",
"n  c gray28",
"m  c #484848",
"M  c #494949",
"N  c gray29",
"B  c #4B4B4B",
"V  c #4C4C4C",
"C  c gray30",
"Z  c #4E4E4E",
"A  c gray31",
"S  c #505050",
"D  c #515151",
"F  c gray32",
"G  c #535353",
"H  c gray33",
"J  c #555555",
"K  c #565656",
"L  c gray34",
"P  c #585858",
"I  c gray35",
"U  c #5A5A5A",
"Y  c #5B5B5B",
"T  c gray36",
"R  c #5D5D5D",
"E  c gray37",
"W  c #5F5F5F",
"Q  c #606060",
"!  c gray38",
"~  c #626262",
"^  c gray39",
"/  c #646464",
"(  c #656565",
")  c gray40",
"_  c #676767",
"`  c #686868",
"'  c DimGray",
"]  c #6A6A6A",
"[  c gray42",
"{  c #6C6C6C",
"}  c #6D6D6D",
"|  c gray43",
" . c #6F6F6F",
".. c gray44",
"X. c #717171",
"o. c #727272",
"O. c gray45",
"+. c #747474",
"@. c gray46",
"#. c #767676",
"$. c #777777",
"%. c gray47",
"&. c #797979",
"*. c gray48",
"=. c #7B7B7B",
"-. c #7C7C7C",
";. c gray49",
":. c #7E7E7E",
">. c gray50",
",. c #808080",
"<. c #818181",
"1. c gray51",
"2. c #838383",
"3. c #848484",
"4. c gray52",
"5. c #868686",
"6. c gray53",
"7. c #888888",
"8. c #898989",
"9. c gray54",
"0. c #8B8B8B",
"q. c gray55",
"w. c #8D8D8D",
"e. c #8E8E8E",
"r. c gray56",
"t. c #909090",
"y. c gray57",
"u. c #929292",
"i. c #939393",
"p. c gray58",
"a. c #959595",
"s. c gray59",
"d. c #979797",
"f. c #989898",
"g. c gray60",
"h. c #9A9A9A",
"j. c #9B9B9B",
"k. c gray61",
"l. c #9D9D9D",
"z. c gray62",
"x. c #9F9F9F",
"c. c #A0A0A0",
"v. c gray63",
"b. c #A2A2A2",
"n. c gray64",
"m. c #A4A4A4",
"M. c #A5A5A5",
"N. c gray65",
"B. c #A7A7A7",
"V. c gray66",
"C. c #A9A9A9",
"Z. c #AAAAAA",
"A. c gray67",
"S. c #ACACAC",
"D. c gray68",
"F. c #AEAEAE",
"G. c #AFAFAF",
"H. c gray69",
"J. c #B1B1B1",
"K. c #B2B2B2",
"L. c gray70",
"P. c #B4B4B4",
"I. c gray71",
"U. c #B6B6B6",
"Y. c #B7B7B7",
"T. c gray72",
"R. c #B9B9B9",
"E. c gray73",
"W. c #BBBBBB",
"Q. c #BCBCBC",
"!. c gray74",
"~. c gray",
"^. c gray75",
"/. c #C0C0C0",
"(. c #C1C1C1",
"). c gray76",
"_. c #C3C3C3",
"`. c gray77",
"'. c #C5C5C5",
"]. c #C6C6C6",
"[. c gray78",
"{. c #C8C8C8",
"}. c gray79",
"|. c #CACACA",
" X c #CBCBCB",
".X c gray80",
"XX c #CDCDCD",
"oX c #CECECE",
"OX c gray81",
"+X c #D0D0D0",
"@X c gray82",
"#X c #D2D2D2",
"$X c LightGray",
"%X c gray83",
"&X c #D5D5D5",
"*X c gray84",
"=X c #D7D7D7",
"-X c #D8D8D8",
";X c gray85",
":X c #DADADA",
">X c gray86",
",X c gainsboro",
"<X c #DDDDDD",
"1X c gray87",
"2X c #DFDFDF",
"3X c gray88",
"4X c #E1E1E1",
"5X c #E2E2E2",
"6X c gray89",
"7X c #E4E4E4",
"8X c gray90",
"9X c #E6E6E6",
"0X c #E7E7E7",
"qX c gray91",
"wX c #E9E9E9",
"eX c #EAEAEA",
"rX c gray92",
"tX c #ECECEC",
"yX c gray93",
"uX c #EEEEEE",
"iX c #EFEFEF",
"pX c gray94",
"aX c #F1F1F1",
"sX c gray95",
"dX c #F3F3F3",
"fX c #F4F4F4",
"gX c gray96",
"hX c #F6F6F6",
"jX c gray97",
/* pixels */
"0 1 q 4 4 0 0 1 0 4 q 0 4 0 4 0 0 0 0 4 0 4 0 0 0 1 q 4 4 4 q 4 0 0 0 0 4 1 0 4 4 0 0 0 4 1 4 4 q 4 0 4 4 q 0 4 q > q 0 4 4 0 4 ",
"G P K K G K V T G V %X<X<X<X<X:X%X5X.X5X:X:X<X:X:X<X> a 5.G.!.$X$X.X}.$X$X[.!.Z.t.V 1 i G B B B B f B K n K G K K P G K K G K 4 ",
"K B T G P K K K G V 5X[.$X$XU.:X$X$X:X$X$X).}.$X.X0.& a w.).J.w.G.<.w.t.5.0.t.N.G i > f ] w.w.5.w.w.0.#.{ ) B n B f B n l V B > ",
"0.t.5.5.t.w.t.& K l :X$X).G.%XJ.$XT.J.[.!.).T.%Xt.! > i N.<XN.0.N.w.Z.0.N.t.N.w.K i > f w.%X5X5X<X5X%X!.J.Z.0.w.0.t.w.t.w.5.w.l ",
"<X$X%XU.Z.5.w.> V B <X.XZ.Z.G.c.w.N.Z.J.N.g.Z.c.#.P > q 0.!.t.w.w.Z.N.N.Z.t.0...G a > q 0.5X%X!.).T.%X5X<X<X<X%X.X%X}.%X$X$X$X*.",
"Z.c.N.N.N.<.] & P n iX).t.Z.N.Z.Z.c.J.t.Z.w.G.N.#.K & f B G.5.N.Z.0.0.Z.w.c.{ K G i & a w.:XT.Z.0.Z.w.c.c.G.0.t.Z.0.G.5.N.5.g.B ",
"t.G.d.Z.w.*...> B B iX.XG.w.J.d.Z.w.d.g.g.w.t.J.5.K & a n { t.w.Z.5.G.c.t.Z.#.i i i 1 q w.8XJ.w.N.w.d.w.d.5.Z.5.0.g.g.N.l.d.N.T ",
"T.*.U.0.g.! P & a n qX$X0.t.w.N.N.Z.0.*.0.l.N.0.) K & i B G 5.Z.N.Z.0.w.0.N...i a i 0 a 0.:XJ.Z.w.d.-.Z.t.<.w.Z.t.N.N.0.-.c.l.K ",
"Z.Z.g.d.{ n n > 1 V !.).N.g.G.0.Z.0.d.0.d.0.w.Z.{ K & & n G B *.a q f i a i a i a $ q i #.:X5Xw.N.w.*.l.#.l.0.Z.w.d.*.G.N.-.w.B ",
"0.w.5.#.K V V $ 4 B N.fXN.c.Z.w.w.l.0.t.0.0.N.0.P *.0 > i V a i a i a i i a i > > $ n V V ).}.0.w.0.d.g.l.t.w.5.Z.t.Z.l.t.Z.<.] ",
"..#.{ K l a 0 > q l 0.<Xw.N.w.d.*.w.0.N.0.Z.t.Z...G 4 > a f i 4 4 1 > > > 1 4 1 0 4 V G n U.T.w.Z.w.c.0.w.w...#.T ) T ! ! ] ) V ",
"K l V l 4 > > & q B { <Xc.w.l.#.-.*.G.d.5.w...t...] i $ a G n n n ..#.0.Z.c.N.G.g...i G B !.w...{ ! ) ] K G K G B B V B n V l V ",
"& 1 & & 4 0 4 0 a G l <X%X0.5.w.l.t.w.0.Z.<.w.N.5.V f & a B ] Z.Z.:X5XsX:X%X.Xd.{ G $ K B 0.{ ) ) K B B l i a i a i 0 q 4 4 0 a ",
"4 0 4 0 4 4 i > i K V N.%Xt.Z.w.-.w.N.w.0.g.0.t.*.G a > 0 0 Z.).%X.XU.<.Z.0.G.w...f > a a q f i a a i 0 n f 4 4 > & & & & > > $ ",
"i a i a a i i f a G n t.}.Z.0.Z.g.5.-.w.#.w.Z.5.B P q > 0 V N.:X[.G.5.t.5.t.5.w.K q > f 4 4 0 q 4 0 0 4 4 1 i f i a a a i i i . ",
"B i a a i a a i i P n { ).w.N.g.w.Z.l.N.w.Z.w.Z.K ..B & 0 n N.sXN.w.w.N.w.N.t.Z.K a > 0 V K V K K & B n n B B n n B n l B n n . ",
"d.l.w.c.g.d.g.d.4 > K V !.!.g.w.w.g.g.*.w.w.0.w.] K K $ > B N.qXw.0.Z.N.0.Z.0.w.P q & a { Z.<X:XK n G -.d.d.g.d.d.g.g.d.g.d.l.G ",
".X}.$X.X.XT.T.{ i $ K l w.).0.N.t...t.t.<.Z.w...d.) V 1 & l J..XZ.G.5.w.N.0.G.<.G i & i N.<XT.G.> n *.!.5X:X<X:X:X<X:X5X:X<X$X-.",
"g.w.Z.w.N.Z...{ a 1 V B { l.G.w.N.G.w.Z.#.w.#.G { P n & & B c.$Xc.w...{ ..#.G P G l 1 i 8X!.N.w.& B g.<X.X!.J.J.J.U.J.U.T.J.T.) ",
"w.Z.0.N.w.t.{ #.i & B G V t.d.{ ..{ { K G ] K ] K B 0 $ 1 4 Z.w.#.0.{ l i q i i a q > ! %XT.0.w.$ B d.:XU.c.d.G.l.c.t.g.5.d.g.! ",
"g.5.N.w.N.N.{ K f > B G n ) G K V K n n l f 0 1 $ > $ 1 > 0 0...i q f $ > & 1 > 1 & > ) <XZ.c.t.> n g.<XG.5.c.5.g.5.g.-.-.w.0.) ",
"w.Z.t.N.w.w.#.V q 1 n V B 0 q 1 q 1 & $ 4 $ & $ 4 & & & O 0 a G a 1 O > & 0 0 4 4 q 0 0.5Xl.Z.0.> n 0.).0.Z.d.Z.g.N.0.d.w.g.l.) ",
"N.*.*.g.5.N...K i > i T G n i > & & & 1 > & 1 B n l V B B n 0.t.d.Z.Z.g.w.w.*.K 0 q ! ).:XZ.t.*.& V 0.).N.5.l.5.d.t.d.#.<.w.5.n ",
"w.-.*.5.G.t.T V a & a w.%X<X:X:X).T.N.w.! i B ! -.Z.N.!.).%X%X<X:X5X%X<X<X.Xd.) & a *.:X).Z.N...& n <.T.N.g.w.Z.w.Z.0.*.<.<.l.B ",
"w.G.N.w.0.0.! n i > i %X[.Z.t.d.d.Z.d.g.i V B *.$XiXqX:X).G.[.!.[.U.).!.).!.#.G & a 0.5XJ.d.t.{ > n { !.d.Z.t.w.g.w.5.Z.w.Z.0.B ",
"Z.0.5.N.t.#.K a i $ q 5XZ.<.g.G.Z.d.l.c.> K B d.8X).w.G.0.Z.d.5.c.g.J.t.w.0.T B 1 a 0.qXc.d.c.P & B B w.] ) K K G ) ] #...w.w.K ",
"] T ] ) G l q a a 4 f :XZ.Z.Z.5.N.0.N.) & n B g.sXZ.Z.c.t.<.N.Z.w.w.5.G.0.Z.K B & f 0.qXN.N.g.G > V > i a B B l l B l n P G K q ",
"l V i i a > & 1 & 1 i <X0.N.w.N.J.w.*.! > n B d.qX5.Z.w.t.N.t.w.*.t.Z.t.w.0.G n & q t.iXt.N.w.K > P q > & $ & 4 > 1 > & i i n q ",
"& & 1 & > 0 0 4 B B B <XN.l.0.N.w.Z.<.) > a f l.sXl.0.Z.t.w.#.w.-.5.w.0.N.w.G B & f t.8Xc.G.0.K $ P f q a l a i 0 4 0 4 > 1 & . ",
"] ! { w.d.5.t.w.0.n 1 %XN.-.t.d.N.5.-.) 0 > B d.5XG.t.<.0.<.0.<.w.Z.*.w.t.N.K n > i w.iXd.N.G.V > G n V B V K V P G K P i q q & ",
"0.U.5X<X:X%X$X.Xc.#.& :XJ.N.0.#.d.c.w.! i & B t.:X).g.w.Z.0.N.-.*.w.*.w.Z.w.K q & f 0.:Xw.0.c.! & n G.:X:XU.w.) G B f B l B T i ",
"U.}.$X!.J.N.N.g.G.l > iXt.g.G.*.5.J.d.{ B > l *.$X!.Z.0.w.-.w.*.-.Z.w.N.0.-.K a 4 a 0.<XN.d.w.V > n <Xw.0.U.:X:X:X5X<X<Xg.a G a ",
"%XU.G.c.0.N.d.Z.w...& iXg.Z.g.N.N.w.N.{ V $ f G !.qXN.Z.d.t.N.0.G.*.-.w.N...P a 0 a 0.:Xw.G.5.K & B <X0.0.Z.N.t.0.Z.t.0.-.a G i ",
"8XG.l.w.Z.0.Z.5.G...& iXt.0.d.Z.w.Z.w.! P & 1 P Z.iXZ.N.G.<.w.-.<.<.-.N.t.{ l q 0 l 0.%XZ.c.w.G > n :XN.Z.5.t.N.Z.5.c.0.) f n a ",
"%XG.t.Z.0.N.Z.<.N.G & <XZ.Z.G.g.w.d.G.! G 1 0 V 0.fXU.G.5.Z.t.0.l.0.N.0.G.T V > 0 n 0..XG.0.Z.G & V }.J.0.Z.N.t.0.N.t.Z.! q V q ",
"<XU.J.w.5.G.w.Z.0.G > <X!.*.t.*.N.Z.t.] K & $ B ...X!.Z.t.-.w.w.0.g.t.l.5.] i & 0 V w..X5.N.G K & V ).N.N.N.w.N.w.0.N.G.G i V f ",
":XU.0.c.N.w.G.5.c.P > T.<Xt.l.Z.5.g.t.! G > & V K U.<XZ.0.Z.t.N.w.c.w.5.) K q > q B -.Z.-.P f q f n N.G.t.N.J.5.c.t.w.Z.K f i i ",
"<XU.N.G.t.Z.d.Z.d.n > !.$X<.N.0.t.5.J.{ B > > q G 0.!.G.5.#.] ] K G l i f i i 1 f V V a f q a B B & ..B l G G K P V G G K q a a ",
"<XU.w.l.c.t.Z.-.N.K > t.5Xt.-.Z.N.w.0...K > > a G B 0.0.{ K f a & & & > > & > $ i l T B l T V G V G > > 1 > & & 1 & & 1 $ > a q ",
":XU.5.d.d.N.w.N.w.G > *.<XJ.t.Z.w.0.Z.) V > & 4 B n f 4 1 0 4 $ q 4 4 0 0 1 q 0 a n G K n B n B V B n n B q f a i a a i i f i f ",
":XT.Z.N.w.l.Z.d.N.G > G iXw.N.0.w.Z.0.) G & & 0 B B B q i a a i B B B l B B n B V l P K *.*.-.*.-.-.*.*.*.-.<.#.-.-.*.*.-.i G i ",
"<XG.5.0.N.w.c.w.#.G $ B qXN.0.w.-.5.G.] K 0 > 1 i T -.<.-.-.*.-.*.-.#.5.-.#.*.w.5.c.t.N.U.J.[.!.!.!.[.).G.[.U.[.!.).!.[.-.a P f ",
"$XJ.G.G.d.G.5.G.G > 4 l sXc.t.Z.0.t.w.T P 0 O 1 l <.T.!.[.T.).).).).).).!.[.!.).}.}.<X5XiXiXqXiXsXqX8XiXiXqX8X5X5X$X.Xt.) q n i ",
".XU.d.N.w.N.G.5.V 1 0 V 8Xg.Z.#.d.w.Z.! G i > $ $ #.}.$XqXqXfXqXiX8X:XqXiX<XqXiXqXqXfX8X<X<X:X!.J.).[.!.Z.).}.G.!.!.U.5.V 4 G q ",
"}.U.N.t.l.w.t.t.P $ a n <Xc.Z.t.Z.0.w.) K i > > 1 -.!..XT.).).).!.).Z.).T.Z.[.!.!.T.J.Z.d.d.5.t.G.5.Z.w.0.w.c.w.Z.0.G.] P 1 f q ",
"U.w.0.Z.t.{ ....V 4 a B %Xw.t.N.0.Z.0.*.G i & $ & ! [.%XJ.w.0.0.w.t.t.l.t.Z.N.g.t.g.N.N.J.g.*.d.0.G.N.d.d.c.t.Z.Z.N.w.] P q q 4 ",
"!.N.N.N.w.G K G > 1 i n J.G.<.w.Z.0.w.{ G a > > > n ).:X).w.d.w.N.w.l.g.g.c.w.0.d.G.Z.0.g.0.g.w.0.-.0.g.d.t.N.w.N.w.Z...G 4 f & ",
"*.-.-.K G G G P > 4 i B g.d.G.0.0.0...! G f $ & & 0 U.<X.XZ.N.w.w.0.w.*.w.0.G.0.g.5.Z.t.-.0.w.N.t.5.Z.w.*.-.w.*.g.0.l.{ K & a > ",
"a > > $ K G V K > i B B <.! ) ! ) T { V K a & 1 & 1 G.<X.Xt.w.N.0.Z.0.w.Z.0.<.*.d.g.0.Z.0.G.d.0.Z.w.w.*.w.0.0.N.0.*.<...G & i 1 ",
"K K f f > & i & > f B q i a a a i a q f a f $ $ > 0 0..XU.G.w.0.G.0.N.-.w.0.d.-.d.w.d.<.c.0.w.-.0.w.0.0.Z.w.<.0.g.*.-...K > i 4 ",
"B l G l V B 4 4 q q B i i > & > & > & $ 1 $ > 1 & q 5.d.....#...) -.{ c.w.Z.Z.0.5.-.5.5.0.<.0.5.Z.5.Z.w.t.N.5.w.w.w.g.#.V 1 a > ",
"*.G.c.G.c.t.d.) l B K a a 4 0 4 0 q 4 0 0 4 4 4 q i K V i i 0 1 0 4 4 K #.{ *.w.<.#.<.5.*.#.<.<.-.<.-.#.<.*.-.-.-...<.! K & a $ ",
"c.[.:X:X<X<X:XT.Z.Z.0.] ! G n i i i a i a a i i a l K B n i i i a q a q f P G P K K G V K G G G G V P K P K G G K T G K 1 4 i 1 ",
"G.:Xc.G.w.)..X<X<X<X!.G.G.N.N.Z.Z.N.Z.w.w.5.<.<...) ) V P n B B n n a i q 4 0 1 4 q 4 q 1 i 4 4 0 & & 1 $ & 1 & & & $ > 1 a V & ",
"c.<XZ.Z.c.U.G.0.N.[.:X<X:X:X<X:X:X8X:X:X<X:X.X.X!.!.G.Z.c.G.l.t.B K n a 0 a i a a q f a 4 4 q 4 4 i 1 1 q 0 4 q q 4 4 f f l n > ",
"N.5XN.0.G.-.*.G.g.5.-.N.w.N.w.N.w.c.Z.w.N.0.Z.Z.U.).:X:X<X%X!.-.i n G V n B a a a a i i a a a i a q f a i a q a i a a n n V G & ",
"Z..XN.Z.N.l.l.w.g.w.d.Z.5.w.G.*.-.w.Z.-.w.0.t.N.w.N.w.N.N.G.#.) > q G V c.5X<XZ.-.n B B G K G n n n n V B l B B n B n G P G P $ ",
"c.[.Z.0.Z.*.5.d.N.5.G.Z.t.w.-.Z.*.0.<.t.0.Z.w.N.t.c.t.N.N.c.] G > f n l <XZ.c.:X:X5X:XG.P V n U.<X5X<X<X:X<X:X.X).J.d.<.f n K > ",
"Z.0.! ] T ] ) ! ) ] ! ) ] ! ! ) ) ! ! ! ] ] ! ) ! ] T ] ) ] K G i & i B <XJ.T.U.U.J.U.!.! G <.5XZ.l.Z.0.G.w.N.g.Z.5.Z.<Xd.> K & ",
"w.T a f i a a i a f q f i i l q a i f i a 0 i a i a i i i i i a a $ q n T.N.U.J.g.! g.w.{ l U.c.w.Z.t.N.N.c.w.N.5.J.5.N.G > G & ",
"a > > O 1 O $ 1 > O 1 1 $ & > > & & $ > & > 1 & > $ & & > > & $ & > 4 B q n i P ) ! ) T P V <XZ.d.d.c.J.t.g.Z.d.Z.N.d.0.K & K 1 ",
"B q a f 4 q 0 1 4 q 0 1 4 0 0 1 0 0 q 4 0 4 q 1 0 4 0 4 0 4 0 0 0 0 q q P T a q $ 1 & 4 > a K G K P K K G G K K G K V G G > G 1 ",
"G G K B n n n B n n n a f a 0 f q a a a i a i i i a f a a i i a i q a a P G V T f i i i a a G K & > $ 1 1 & $ > > > > & > & K 4 ",
"f a a q a a i a a a i i a i a i a a a i i a i a i f a q a a i a a a i a i a f i i q f f q a a a q f i i i i a a a q a i a i a a "
};
