/* XPM */
static char *_1e45afdd6a74feae2fb5d1b22b1a790PBuKJEyHhsAtizXI[] = {
/* columns rows colors chars-per-pixel */
"64 64 56 1 ",
"  c gray18",
". c #353535",
"X c #3C3C3C",
"o c #444444",
"O c #4C4C4C",
"+ c #535353",
"@ c #595957",
"# c #5B5B5B",
"$ c #636363",
"% c #676969",
"& c #6C6C6C",
"* c #706F6F",
"= c #6F6F70",
"- c #6F7171",
"; c #747474",
": c #787777",
"> c #7B7B7B",
", c #7F807F",
"< c #7F7F80",
"1 c #807F80",
"2 c #848484",
"3 c #8B8B8B",
"4 c #908F8F",
"5 c #8F908F",
"6 c #8E8E90",
"7 c #949494",
"8 c #979897",
"9 c #989897",
"0 c #9B9B9B",
"q c #A0A09E",
"w c #9F9FA1",
"e c #A4A4A4",
"r c #A7A8A7",
"t c #A8A8A7",
"y c #ACACAC",
"u c #B0B0AF",
"i c #AFAFB0",
"p c #B0AFB0",
"a c #B3B3B3",
"s c #B8B7B7",
"d c #B7B7B8",
"f c #BBBBBB",
"g c #BFBFC0",
"h c #C3C3C3",
"j c #C7C8C7",
"k c #CCCCCC",
"l c #CFD0D0",
"z c #D4D4D4",
"x c #D8D8D7",
"c c #DBDBDB",
"v c #DFE0E0",
"b c #E5E5E5",
"n c #E8E7E7",
"m c #EBEBEB",
"M c #F3F3F3",
"N c #FAFAFA",
/* pixels */
"yzydydddy93ee0>$#2X&ut&$$**#zx:ji9+8qgg&#OO;X8r$$2327e$te;2;%oo$",
"y>;3708093&azcxd333k9##:;232zMjdd2O3yzxkfa<;%7:$163>30;=43#.o+2h",
"26ete0663,odNNxjgkgg1$*22443dde4y>#>226qwe09td24963;>92O239>$-da",
"07tt78>83<oaN93,1e1ye*,3332,ay3+93%8>3302:<0zy90932;$:%Otdd3@0mt",
"336e7>;972ofx33;;3>2sg>%>228ty3+3r22;>3e0<&px98432;O+O+8khw;1nn0",
"2>&:635ir2Oxx>:&%2044k0#$%7ysd9$2ed9>>298>$vp9432>$+o;dzs>17+bct",
":&;:iiryr3+xx3<>&3ty%yi:2esde0t2$8fdt72w326x8332>#oo7bme37eeXxze",
"8$$:390yr1+zj31;$>0e3=a08tye7;72+hbzzkad73a06><;$ Oexk3600e7Osll",
"lsq;+#266>@zj3>&$>794@ewjle32$>2+ct830wg4;0;$+OOoO>h03347306@pcz",
"hyhkg8;+##$jj2>;;27e8Ow9yxd>;%;<+ke089ee;;2>:>;:%>0je;23:>37Oyhk",
";=4fjkkd6&2da2337eee1Oe9ej00>@;;+j0834q3+=2whld0>2gxzf322334Xpj0",
"#$%;>3fyw78ae>39wyyw%#p93433p7##%k83333>X$7lxlq>;2yhkkzf2<>$#fd%",
"O#%*>>7<>>8e::690tte&1ky427;ait00l33222.@:yge0237ekh09pzls&O3e9O",
"&%$$&=33>$wapy337803>3kk434292tflj3=&=.+3pte8339ewkfge2fgs>29y3;",
"::;$=<0e2+thxhyw290323gk7773e03>afy1Oo#4awig732et9dhd3$wsyt06s;=",
"113338903&dbMct72&2;23yjwe9377e9;43:>;4y79add47e009d9&;4h8470s:-",
">28934397=kvfgxa7>=$370j895<:3091@;>18ale29sha78887e2#30k8:ejd>$",
">33722277=jxtttefgxxxa0l873>28w9;O2wpgcxf39dgdd7378<&;yde8e;hga;",
"30082;9we>fs37wwe0fdje6y93>;3yy0;$jkf>wjjy0wayffy32%+20f12d720t9",
"22372<ee0:77603;13w937326>:10is0.3zNe373fka89edds0;@&9yk12tr32lx",
"t31689ee7=>2tt:;>27:#14=987wyee$#fzd00we4kj724ty42$370a037wae>ev",
"l>$@#&#@@@-ph9;$$;2&o73>30we933Xwcz7979a87ky2247:#8fsyw9778dka1t",
"xg83ie6>1alcc2%##:3>Od>;;2y+O.O2nc433>7t9=wyp3;;+2ass3w9779ase7&",
"Mnhhlkkkcmclj=O+%4e2Ot$$#+O+8afzbe331;>742&8st##6ifd27ae89w27=+&",
"b827tdhjld70hw>6eyt2+0e0dhkxxgafh323>&;2222;ea730fz822ap008@+=eM",
"7933wahgt93>ezwyhp3;+7cbnzs3>23iy233:%>93223&de07f7974pa73$+icNj",
"32:6efy8927e<cfwee#O$sns721::>Oee2;2>>8t9723#hdaelt222eq>>#&kbs6",
"&;:27333723p99f:>+%epky909041;o>0e$;127e92>;&hj3:ygh9;%2;2;$kby;",
"&$=2:;23223se&eadtnjyza3333377$$8t&&>>3372:+wxt>0y09faww>:;;hxht",
"ye22%#&<333y8+9kmNg2&fx9332<262+gy>$;>2371#:kg&2ewwi21efky7<9raa",
"ar73#o+>32382otxj721%qmk222>223+kh2+@#=22>otz3%8e099;#ejjf7:388e",
"r0:7>$&;;;<3o&g8;3493$0j8>223>3#sje3*&#OoO&ae+;33>>Oo2p7=##=ir<8",
"p9@70fh&#OO:X7e$%2329e$te;1;%oo$yzpdidddi06we9>$#2X&pe&$#*=#zx>j",
"d2O3izzkgp<-%7:$136>20;;46#.o+2hy:;3409993;azcxd333k9$#>>232zmkd",
"p>@>227q0e00td27043;>91O1691$=dd33ete0373>oaNNxkfkfh>$*22443ddw5",
"93%8>3302:>0zy99931;$:%+tsa3+0mr07tt78>83>oaN03>2e>yq;,3323>ay3+",
"3r3<=>6ww<&px98733;O+O+7kh0;1nn0326r4>:872ogx32;;3>2df>%>237yy3+",
"2ed9>>208>$bp9732;$+o;azd>18+bcr2<&;436ir2Oxx>>&%2977k0#$&3yds9$",
"$8fdy72w323x83222#Xo7nmw37eeXxze:&;;iirtt3+xx2<:&3ty%tp>3esde0e2",
"Ojbzzjaa73a03>2;$ Oexk63w0e7Osll8%$:680ye2+zk62;$>qe3&a97tte7;73",
"+cy939eg4;w;$+OOOO>h03377393#axxlse=+#376>#zk3>&%>793#eejke32$>2",
"+keq99we;;2>>>;;%;0jw;22>>37Othkgyhkf7;O###jj2>=;27e9O09yxd>;%;2",
"+j9737w3+;20hzsw>2gxxf332337opj0;=4fjkks7=2da2337wet2Oe9eh001+=;",
"%l73234:.$7lxk0<;1yhkkzf2>>$@fd$#$&;>3fy048ae>30wyyw%#y83733a8#@",
"wk33322.@>yge9237elg09alkd*O3e9OO#$=>>72>>8e>;300ttw&>ky727;ppt0",
"lj3=%*.+3pte8330eqkffe2fhs>28i3;*%$$&&33<$0aay337903>3zk733292td",
"aft1+o#4awyg433we9sjd3$wdtr93d;=:;;$=>0e>+yhxhy0270323fk7473ee32",
";36:>;4y79afa77e090f9%;7h8680s:=123347003=fnmct81*2;32ykqe933809",
"2#;>>8ake37sga89887e2#39l7;ejs>$>38064387=kvggxa71=$340k897<:399",
";o2wafccg28sgdf4378>&=pde9e;hha;>2372<277;jxteyeggxxxa0k972>28w0",
";$jkf1qjjywqayfgy32&+20f22d720t930982;9we>ds37w0e0fsje3y03::3yy0",
".3zNe373fka89easdq;+&9yk12tt32lx223722we9:84603;>3w938326>:<eyd0",
"#fzd09we4kj734yy72$390ie370pe>evy31689ew8=:2tr:;>27:#23*977wyee$",
"eck8989a87jp1167:#8ddy09778dka2tl>###&$@@@=ah9;$$:2&o73>30ee973X",
"bc73317e9=eyy3;;+2add400779asq7&xf93ir6:1plcc2&#$;4:Od>;;2y+o.O2",
"be331=>832&7se$#3pfd27ae89w37=O=Mnjhkkkkcmvlj=O+%3e2+e$$#+O+0afk",
"h332>&;2221;ea839fz722ay008#+=eMb827yffjls70hw>3eyt2+0e0djkxxgaf",
"y233:&:04226&dw07f8974pd63$+icNj7933wahhy03>exwygp3;+8cbbzd3>22a",
"t2;1><8t9733#hsaelt223ew<>#&kbd432:6rfy8927r>cfwee#O$snd721;:<Oe",
"0w%;>27e92;:%hk3>tgj9=$2;1=%jny:&;:27333613i88f:>+&epkt909972:o>",
"8t&&>13382:+0xt>9a90dawq>>;;hchr=#&2;;22223se&eadenjyza3333377$$",
"gy:%;>134<#:kh&2ewwy21efky7>9rappe22%#&2336y8+9kmNg2&fx8332<262+",
"lg3++#=22>otl3%9e998:$ejjd7:388edr73#o@:32392otxh722%0mk222>233O",
"sje2=&#OoO&pe@;33>>OX1p8&$#=pt<7r0:7>$&;;;13o&f9;3793%0j8>222;3$"
};
